<?xml version="1.0" encoding="utf-8"?>
<!-- Generator: Adobe Illustrator 16.0.0, SVG Export Plug-In . SVG Version: 6.00 Build 0)  -->
<!DOCTYPE svg PUBLIC "-//W3C//DTD SVG 1.1//EN" "http://www.w3.org/Graphics/SVG/1.1/DTD/svg11.dtd">
<svg version="1.1" id="Layer_1" xmlns="http://www.w3.org/2000/svg" xmlns:xlink="http://www.w3.org/1999/xlink" x="0px" y="0px"
	 width="1195px" height="340px" viewBox="0 0 1195 340" enable-background="new 0 0 1195 340" xml:space="preserve">
<g>
	<g transform="translate(0.000000,768.000000) scale(0.100000,-0.100000)">
		<path fill="#3D4DB7" d="M11133.202,4313.212c0-11.699,9.902-11.699,26.953,0c10.762,7.168,9.883,8.955-6.289,8.955
			C11142.187,4322.167,11133.202,4318.574,11133.202,4313.212z"/>
	</g>
	<g>
		<path id="XMLID_42_" fill="#353F49" d="M1181.889,98.996c7.543,0,12.824,6.033,12.824,13.576c0,7.545-6.033,13.579-12.824,13.579
			c-7.543,0-13.576-6.034-13.576-13.579C1168.313,105.029,1174.346,98.996,1181.889,98.996L1181.889,98.996z M1181.137,101.26
			c-6.039,0-10.564,5.281-10.564,11.313c0,6.036,4.525,11.315,10.564,11.315c6.031,0,10.559-5.279,10.559-11.315
			C1192.449,106.541,1187.168,101.26,1181.137,101.26L1181.137,101.26z M1178.873,120.117h-2.264v-15.088c1.508,0,2.264,0,4.527,0
			c2.26,0,3.768,0.755,4.523,0.755c0.756,0.757,1.508,1.509,1.508,3.018c0,2.264-1.508,3.019-3.016,3.771l0,0
			c1.508,0,2.264,1.512,2.264,3.775c0,2.261,0.752,3.016,0.752,3.77h-2.262c0-0.754-0.754-1.509-0.754-3.77
			c0-2.264-1.51-2.264-3.016-2.264h-1.512v6.033H1178.873z M1178.873,111.82h1.506c2.264,0,3.773-0.755,3.773-2.264
			s-0.756-2.264-3.773-2.264c-0.754,0-1.506,0-1.506,0V111.82z"/>
		<path id="XMLID_38_" fill="#353F49" d="M435.864,197.811c-15.086,0-27.91-7.543-34.698-19.613v84.484h-24.139V92.208h24.139
			v17.349c6.788-12.067,19.611-20.367,34.698-20.367c30.928,0,49.784,25.646,49.784,53.556
			C485.648,171.41,466.039,197.811,435.864,197.811z M431.337,110.312c-17.348,0-29.417,15.088-29.417,32.434
			c0,18.106,11.316,33.944,29.417,33.944c17.352,0,29.42-15.083,29.42-32.433C460.757,125.399,448.689,110.312,431.337,110.312z"/>
		<path id="XMLID_35_" fill="#353F49" d="M552.785,89.19c33.943,0,51.295,25.646,51.295,54.313c0,1.506,0,4.524,0,6.033h-79.206
			c0,18.104,14.332,29.416,32.438,29.416c12.822,0,23.383-5.281,31.68-12.821l12.824,12.821
			c-9.809,8.298-22.633,18.104-47.522,18.104c-36.208,0-55.066-25.646-55.066-54.311C499.981,114.836,518.839,89.19,552.785,89.19z
			 M524.874,134.451h55.821c-1.511-15.088-12.824-27.91-27.91-27.91C537.697,106.541,526.383,120.117,524.874,134.451z"/>
		<path id="XMLID_33_" fill="#353F49" d="M646.32,193.285H621.43V92.208h24.891v13.576c5.283-9.807,16.598-16.595,30.174-16.595
			c30.174,0,42.24,19.612,42.24,49.031v55.064H694.6v-55.064c0-20.367-9.053-29.419-24.139-29.419
			c-12.824,0-24.141,8.298-24.141,27.91V193.285L646.32,193.285z"/>
		<path id="XMLID_31_" fill="#353F49" d="M747.398,132.941v-20.369h-14.33V92.208h14.33V58.262h24.898v33.946h21.119v20.364h-21.119
			v19.615c0,32.435,1.504,42.24,12.82,42.24c2.262,0,4.525-0.757,6.787-0.757l3.02,18.86c-6.787,2.262-12.824,3.772-17.352,3.772
			C747.398,196.304,747.398,174.428,747.398,132.941z"/>
		<path id="XMLID_28_" fill="#353F49" d="M858.287,89.19c15.84,0,27.154,8.3,34.697,20.367V92.208h24.139v101.077h-24.139v-15.84
			c-6.789,12.068-19.613,20.365-34.697,20.365c-30.928,0-49.787-25.646-49.787-53.554C808.5,115.593,828.113,89.19,858.287,89.19z
			 M862.811,175.934c17.35,0,29.422-15.082,29.422-32.431c0-17.352-12.072-33.191-29.422-33.191
			c-17.348,0-29.416,15.088-29.416,33.191S845.463,175.934,862.811,175.934z"/>
		<path id="XMLID_26_" fill="#353F49" d="M963.135,193.285h-24.137V2.443h24.137v104.098c5.281-9.807,16.594-16.597,30.176-16.597
			c30.174,0,42.24,19.612,42.24,49.031v55.064h-24.895v-55.064c0-20.367-9.051-29.419-23.383-29.419
			c-13.578,0-24.139,8.297-24.139,27.91V193.285z"/>
		<path id="XMLID_22_" fill="#353F49" d="M1050.637,142.745c0-27.909,18.105-53.556,54.313-53.556s54.309,24.895,54.309,53.556
			c0,28.665-18.102,53.559-54.309,53.559S1050.637,171.41,1050.637,142.745z M1135.121,142.745
			c0-21.121-12.822-35.452-30.172-35.452c-16.598,0-29.418,14.331-29.418,35.452c0,21.877,12.82,36.207,29.418,36.207
			C1121.541,178.952,1135.121,164.622,1135.121,142.745z"/>
		<g id="XMLID_19_">
			<path id="XMLID_20_" fill="#0677B5" d="M153.749,82.401c-11.314,0-23.383,2.264-34.698,6.033
				c-26.402,11.315-46.768,32.438-57.328,58.838c-10.561,29.417-8.298,63.362,6.034,92.781
				c22.629,41.486,64.117,66.38,112.394,66.38c23.384,0,46.768-6.036,67.888-17.349c35.455-21.122,60.346-55.065,68.644-95.8
				c9.052-42.24-0.754-87.501-26.403-124.463c-31.679-42.24-80.711-66.379-134.267-66.379c-60.346,0-115.411,30.172-146.337,80.713
				c-3.019,5.278-6.79,11.315-9.052,17.349c0,0.755-0.756,3.772,0,5.279c0.753,1.509,3.017,1.509,3.77,1.509l0,0
				c2.263,0,5.282-2.264,9.053-8.297c18.858-26.401,39.979-45.259,64.872-58.083c21.875-11.314,46.768-17.348,71.661-17.348
				c58.836,0,109.376,31.681,132.005,83.728c13.578,32.437,13.578,68.641,0,99.569c-12.069,27.909-35.453,49.786-64.117,60.347
				c-10.56,3.772-21.876,5.279-33.19,5.279c-43.751,0-79.205-26.4-89.01-66.381c-4.526-21.119,0.755-44.501,13.578-60.344
				c7.544-9.807,21.122-21.122,42.997-21.122c13.578,0,27.155,6.791,34.698,16.598c6.035,7.542,7.544,15.84,6.035,24.892
				c-1.509,6.787-8.297,15.085-14.332,15.085c-1.508,0-3.771-0.755-4.526-1.507c-1.509-1.512-1.509-3.02-1.509-4.527
				c-0.753-3.771-1.508-9.051-9.05-12.066c-1.509-0.755-3.018-0.755-4.527-0.755c-11.314,0-18.856,10.558-21.12,21.119
				c-1.509,9.806,1.509,19.612,8.297,27.155c8.299,9.807,21.875,15.086,36.208,15.086c1.508,0,2.262,0,3.771,0
				c17.349-2.262,31.681-10.559,41.487-24.893c11.314-16.594,14.332-39.222,9.052-59.589
				C223.901,105.029,191.464,82.401,153.749,82.401z"/>
		</g>
	</g>
</g>
</svg>
