<?xml version="1.0" encoding="utf-8"?>
<!-- Generator: Adobe Illustrator 27.5.0, SVG Export Plug-In . SVG Version: 6.00 Build 0)  -->
<svg version="1.1" xmlns="http://www.w3.org/2000/svg" xmlns:xlink="http://www.w3.org/1999/xlink" x="0px" y="0px"
	 viewBox="0 0 800 800" style="enable-background:new 0 0 800 800;" xml:space="preserve">
<g id="Background">
	<rect style="fill:#D2FAED;" width="800" height="800"/>
</g>
<g id="Objects">
	<g>
		<g>
			<g>
				<path style="fill:#89A29B;" d="M288.492,780.607v-0.258c-0.349,0.398-0.692,0.725-1.031,0.973
					c-0.338,0.252-0.706,0.441-1.102,0.57c-0.396,0.133-0.827,0.195-1.296,0.195c-0.621,0-1.196-0.131-1.725-0.393
					c-0.528-0.264-0.986-0.639-1.372-1.127c-0.387-0.486-0.68-1.059-0.879-1.719c-0.199-0.658-0.299-1.371-0.299-2.137
					c0-1.621,0.396-2.885,1.188-3.791c0.792-0.904,1.833-1.357,3.125-1.357c0.746,0,1.377,0.129,1.89,0.385
					c0.513,0.256,1.013,0.652,1.501,1.182v-3.826c0-0.533,0.105-0.934,0.318-1.207c0.212-0.272,0.514-0.408,0.907-0.408
					c0.393,0,0.694,0.125,0.907,0.375c0.212,0.252,0.318,0.619,0.318,1.107v11.436c0,0.494-0.113,0.863-0.342,1.111
					c-0.228,0.246-0.522,0.369-0.883,0.369c-0.354,0-0.647-0.127-0.879-0.383C288.607,781.447,288.492,781.082,288.492,780.607z
					 M283.392,776.799c0,0.703,0.109,1.301,0.328,1.795c0.219,0.494,0.518,0.865,0.897,1.115c0.38,0.25,0.795,0.377,1.244,0.377
					c0.456,0,0.872-0.119,1.25-0.357c0.376-0.236,0.677-0.602,0.902-1.092c0.225-0.49,0.337-1.105,0.337-1.838
					c0-0.691-0.112-1.285-0.337-1.783c-0.225-0.496-0.528-0.875-0.912-1.139c-0.383-0.262-0.803-0.393-1.258-0.393
					c-0.475,0-0.899,0.135-1.273,0.402c-0.374,0.27-0.663,0.654-0.869,1.158C283.494,775.549,283.392,776.133,283.392,776.799z"/>
				<path style="fill:#89A29B;" d="M299.926,777.455h-5.071c0.006,0.588,0.125,1.107,0.356,1.557
					c0.23,0.449,0.538,0.789,0.921,1.016c0.383,0.229,0.806,0.342,1.268,0.342c0.31,0,0.593-0.035,0.85-0.107
					c0.257-0.074,0.505-0.188,0.746-0.344c0.241-0.154,0.462-0.32,0.664-0.498c0.202-0.178,0.464-0.42,0.788-0.723
					c0.133-0.113,0.323-0.172,0.571-0.172c0.266,0,0.48,0.074,0.645,0.221c0.164,0.146,0.248,0.35,0.248,0.617
					c0,0.234-0.093,0.506-0.275,0.82c-0.185,0.314-0.462,0.615-0.831,0.902c-0.372,0.289-0.836,0.527-1.397,0.717
					c-0.56,0.191-1.204,0.285-1.933,0.285c-1.665,0-2.96-0.475-3.884-1.424c-0.924-0.949-1.386-2.238-1.386-3.865
					c0-0.768,0.113-1.479,0.341-2.133c0.229-0.656,0.561-1.217,0.997-1.685c0.437-0.469,0.975-0.828,1.615-1.078
					c0.639-0.25,1.349-0.375,2.127-0.375c1.013,0,1.882,0.213,2.606,0.641c0.726,0.428,1.27,0.98,1.63,1.656
					c0.36,0.678,0.542,1.369,0.542,2.07c0,0.654-0.187,1.076-0.56,1.27C301.13,777.357,300.604,777.455,299.926,777.455z
					 M294.854,775.982h4.702c-0.063-0.887-0.303-1.551-0.717-1.99c-0.415-0.441-0.961-0.66-1.638-0.66
					c-0.646,0-1.177,0.223-1.591,0.668C295.195,774.447,294.944,775.107,294.854,775.982z"/>
				<path style="fill:#89A29B;" d="M311.741,778.697c0,0.715-0.173,1.328-0.522,1.838c-0.348,0.51-0.862,0.896-1.543,1.16
					c-0.68,0.262-1.508,0.393-2.483,0.393c-0.931,0-1.729-0.143-2.394-0.428c-0.665-0.283-1.156-0.641-1.472-1.066
					c-0.317-0.43-0.475-0.857-0.475-1.289c0-0.285,0.101-0.527,0.304-0.73c0.202-0.201,0.459-0.303,0.77-0.303
					c0.271,0,0.48,0.066,0.626,0.199s0.286,0.32,0.418,0.559c0.266,0.465,0.585,0.807,0.956,1.037
					c0.37,0.227,0.874,0.342,1.515,0.342c0.519,0,0.945-0.117,1.277-0.348c0.332-0.232,0.498-0.496,0.498-0.793
					c0-0.457-0.172-0.787-0.518-0.996c-0.345-0.209-0.914-0.41-1.705-0.6c-0.893-0.221-1.619-0.455-2.18-0.699
					c-0.561-0.242-1.008-0.565-1.344-0.963c-0.336-0.398-0.504-0.891-0.504-1.473c0-0.518,0.155-1.01,0.465-1.473
					c0.31-0.461,0.768-0.83,1.373-1.106c0.604-0.275,1.333-0.414,2.188-0.414c0.671,0,1.275,0.07,1.809,0.211
					c0.536,0.137,0.983,0.326,1.34,0.56c0.358,0.232,0.63,0.492,0.816,0.777c0.187,0.285,0.28,0.563,0.28,0.836
					c0,0.297-0.1,0.541-0.298,0.732c-0.199,0.188-0.482,0.285-0.851,0.285c-0.266,0-0.492-0.076-0.679-0.231
					c-0.186-0.15-0.4-0.379-0.641-0.682c-0.196-0.254-0.426-0.457-0.693-0.609c-0.266-0.152-0.627-0.227-1.083-0.227
					c-0.469,0-0.857,0.098-1.168,0.299c-0.31,0.199-0.465,0.447-0.465,0.744c0,0.273,0.114,0.496,0.341,0.67
					c0.228,0.176,0.535,0.32,0.922,0.434c0.386,0.113,0.917,0.252,1.596,0.416c0.803,0.197,1.46,0.432,1.97,0.703
					c0.509,0.272,0.896,0.594,1.16,0.965C311.61,777.801,311.741,778.223,311.741,778.697z"/>
				<path style="fill:#89A29B;" d="M314.39,770.34c-0.361,0-0.669-0.111-0.926-0.332c-0.256-0.221-0.385-0.535-0.385-0.941
					c0-0.367,0.131-0.668,0.394-0.906c0.263-0.238,0.569-0.358,0.917-0.358c0.336,0,0.633,0.108,0.893,0.324
					c0.26,0.215,0.39,0.527,0.39,0.939c0,0.4-0.128,0.711-0.381,0.936C315.039,770.227,314.738,770.34,314.39,770.34z
					 M315.672,773.018v7.494c0,0.52-0.124,0.912-0.371,1.178c-0.248,0.266-0.56,0.398-0.94,0.398c-0.38,0-0.689-0.135-0.926-0.408
					c-0.238-0.271-0.356-0.662-0.356-1.168v-7.418c0-0.512,0.118-0.898,0.356-1.158c0.237-0.26,0.546-0.391,0.926-0.391
					c0.38,0,0.693,0.131,0.94,0.391C315.549,772.195,315.672,772.557,315.672,773.018z"/>
				<path style="fill:#89A29B;" d="M327.031,773.445v7.531c0,0.861-0.093,1.603-0.277,2.225c-0.182,0.619-0.477,1.133-0.883,1.537
					c-0.405,0.404-0.936,0.707-1.59,0.902c-0.655,0.197-1.471,0.295-2.446,0.295c-0.893,0-1.69-0.125-2.394-0.375
					c-0.702-0.252-1.243-0.574-1.624-0.969c-0.379-0.396-0.57-0.803-0.57-1.221c0-0.316,0.108-0.576,0.324-0.773
					c0.215-0.201,0.475-0.301,0.778-0.301c0.38,0,0.712,0.168,0.998,0.504c0.139,0.17,0.283,0.344,0.432,0.518
					c0.149,0.176,0.315,0.324,0.494,0.447c0.181,0.123,0.397,0.215,0.65,0.275c0.253,0.059,0.545,0.09,0.874,0.09
					c0.671,0,1.192-0.094,1.563-0.281c0.371-0.185,0.63-0.447,0.779-0.783c0.149-0.334,0.236-0.693,0.261-1.078
					c0.025-0.383,0.044-0.998,0.057-1.848c-0.399,0.559-0.859,0.982-1.382,1.273c-0.522,0.291-1.145,0.438-1.866,0.438
					c-0.868,0-1.625-0.223-2.275-0.666c-0.648-0.443-1.148-1.063-1.495-1.861c-0.349-0.799-0.522-1.719-0.522-2.764
					c0-0.777,0.105-1.482,0.317-2.107c0.213-0.629,0.515-1.156,0.907-1.588c0.393-0.43,0.845-0.754,1.358-0.973
					c0.513-0.219,1.076-0.328,1.691-0.328c0.734,0,1.371,0.142,1.909,0.422c0.538,0.283,1.039,0.725,1.5,1.326v-0.352
					c0-0.449,0.11-0.797,0.332-1.045c0.222-0.246,0.507-0.371,0.855-0.371c0.5,0,0.832,0.164,0.997,0.49
					C326.948,772.361,327.031,772.832,327.031,773.445z M319.518,776.732c0,1.051,0.229,1.846,0.688,2.383
					c0.459,0.539,1.053,0.809,1.781,0.809c0.43,0,0.837-0.117,1.22-0.348c0.384-0.23,0.695-0.58,0.937-1.045
					c0.24-0.465,0.361-1.029,0.361-1.695c0-1.057-0.232-1.881-0.698-2.469c-0.466-0.588-1.078-0.883-1.838-0.883
					c-0.741,0-1.335,0.281-1.78,0.846C319.741,774.893,319.518,775.693,319.518,776.732z"/>
				<path style="fill:#89A29B;" d="M331.152,772.981v0.313c0.455-0.602,0.954-1.043,1.496-1.324
					c0.542-0.281,1.163-0.424,1.866-0.424c0.684,0,1.295,0.15,1.833,0.447c0.538,0.299,0.941,0.719,1.206,1.262
					c0.172,0.318,0.282,0.66,0.333,1.027c0.051,0.367,0.077,0.836,0.077,1.406v4.824c0,0.52-0.119,0.912-0.357,1.178
					c-0.237,0.266-0.546,0.398-0.926,0.398c-0.387,0-0.7-0.135-0.94-0.408c-0.241-0.271-0.361-0.662-0.361-1.168v-4.322
					c0-0.854-0.119-1.508-0.356-1.961c-0.238-0.451-0.711-0.68-1.42-0.68c-0.461,0-0.883,0.139-1.263,0.414
					s-0.659,0.654-0.836,1.135c-0.126,0.387-0.19,1.107-0.19,2.166v3.248c0,0.525-0.123,0.92-0.365,1.184
					c-0.244,0.262-0.559,0.393-0.945,0.393c-0.375,0-0.681-0.135-0.922-0.408c-0.24-0.271-0.361-0.662-0.361-1.168v-7.494
					c0-0.494,0.107-0.863,0.323-1.107c0.215-0.242,0.51-0.365,0.883-0.365c0.229,0,0.435,0.055,0.619,0.162
					c0.183,0.109,0.331,0.27,0.441,0.484C331.097,772.406,331.152,772.67,331.152,772.981z"/>
				<path style="fill:#89A29B;" d="M346.926,777.455h-5.071c0.007,0.588,0.124,1.107,0.356,1.557
					c0.231,0.449,0.538,0.789,0.921,1.016c0.382,0.229,0.805,0.342,1.267,0.342c0.31,0,0.594-0.035,0.851-0.107
					c0.255-0.074,0.504-0.188,0.746-0.344c0.24-0.154,0.461-0.32,0.665-0.498c0.202-0.178,0.464-0.42,0.788-0.723
					c0.133-0.113,0.323-0.172,0.57-0.172c0.266,0,0.481,0.074,0.646,0.221c0.165,0.146,0.247,0.35,0.247,0.617
					c0,0.234-0.091,0.506-0.275,0.82c-0.184,0.314-0.461,0.615-0.832,0.902c-0.371,0.289-0.835,0.527-1.396,0.717
					c-0.561,0.191-1.205,0.285-1.933,0.285c-1.665,0-2.96-0.475-3.885-1.424c-0.923-0.949-1.386-2.238-1.386-3.865
					c0-0.768,0.114-1.479,0.342-2.133c0.228-0.656,0.561-1.217,0.998-1.685c0.437-0.469,0.975-0.828,1.614-1.078
					s1.349-0.375,2.128-0.375c1.013,0,1.881,0.213,2.606,0.641c0.726,0.428,1.269,0.98,1.63,1.656
					c0.36,0.678,0.542,1.369,0.542,2.07c0,0.654-0.187,1.076-0.561,1.27C348.13,777.357,347.604,777.455,346.926,777.455z
					 M341.855,775.982h4.701c-0.063-0.887-0.302-1.551-0.717-1.99c-0.415-0.441-0.961-0.66-1.638-0.66
					c-0.647,0-1.177,0.223-1.592,0.668C342.194,774.447,341.944,775.107,341.855,775.982z"/>
				<path style="fill:#89A29B;" d="M357.496,780.607v-0.258c-0.348,0.398-0.691,0.725-1.03,0.973
					c-0.339,0.252-0.706,0.441-1.102,0.57c-0.395,0.133-0.828,0.195-1.296,0.195c-0.622,0-1.196-0.131-1.724-0.393
					c-0.529-0.264-0.986-0.639-1.372-1.127c-0.387-0.486-0.679-1.059-0.878-1.719c-0.2-0.658-0.299-1.371-0.299-2.137
					c0-1.621,0.396-2.885,1.187-3.791c0.792-0.904,1.833-1.357,3.125-1.357c0.747,0,1.377,0.129,1.89,0.385
					c0.513,0.256,1.013,0.652,1.5,1.182v-3.826c0-0.533,0.106-0.934,0.319-1.207c0.212-0.272,0.515-0.408,0.907-0.408
					c0.392,0,0.694,0.125,0.907,0.375c0.212,0.252,0.318,0.619,0.318,1.107v11.436c0,0.494-0.114,0.863-0.342,1.111
					c-0.228,0.246-0.522,0.369-0.883,0.369c-0.355,0-0.648-0.127-0.879-0.383C357.612,781.447,357.496,781.082,357.496,780.607z
					 M352.396,776.799c0,0.703,0.108,1.301,0.327,1.795c0.218,0.494,0.518,0.865,0.898,1.115c0.379,0.25,0.794,0.377,1.243,0.377
					c0.457,0,0.873-0.119,1.249-0.357c0.377-0.236,0.678-0.602,0.902-1.092c0.225-0.49,0.337-1.105,0.337-1.838
					c0-0.691-0.112-1.285-0.337-1.783c-0.224-0.496-0.528-0.875-0.912-1.139c-0.384-0.262-0.803-0.393-1.259-0.393
					c-0.474,0-0.899,0.135-1.272,0.402c-0.373,0.27-0.663,0.654-0.869,1.158C352.499,775.549,352.396,776.133,352.396,776.799z"/>
				<path style="fill:#89A29B;" d="M368.094,769.172v3.959c0.487-0.506,0.984-0.895,1.491-1.162c0.506-0.27,1.134-0.404,1.881-0.404
					c0.861,0,1.616,0.205,2.266,0.611c0.648,0.41,1.151,1.002,1.51,1.777c0.357,0.775,0.537,1.695,0.537,2.76
					c0,0.785-0.1,1.504-0.299,2.16c-0.2,0.656-0.49,1.225-0.869,1.705c-0.38,0.48-0.841,0.853-1.382,1.117
					c-0.542,0.262-1.139,0.393-1.79,0.393c-0.399,0-0.775-0.047-1.125-0.143c-0.352-0.094-0.651-0.219-0.898-0.375
					c-0.246-0.154-0.457-0.314-0.631-0.479c-0.174-0.164-0.404-0.412-0.689-0.742v0.258c0,0.486-0.117,0.855-0.352,1.107
					c-0.233,0.25-0.531,0.373-0.893,0.373c-0.367,0-0.66-0.123-0.878-0.373c-0.219-0.252-0.328-0.621-0.328-1.107v-11.322
					c0-0.525,0.106-0.924,0.317-1.191c0.212-0.27,0.509-0.404,0.889-0.404c0.399,0,0.706,0.129,0.921,0.385
					C367.986,768.332,368.094,768.695,368.094,769.172z M368.218,776.875c0,1.031,0.236,1.824,0.707,2.377
					c0.472,0.555,1.091,0.834,1.857,0.834c0.652,0,1.214-0.283,1.686-0.852c0.472-0.566,0.707-1.379,0.707-2.436
					c0-0.684-0.097-1.273-0.294-1.768c-0.197-0.494-0.475-0.875-0.835-1.145c-0.361-0.268-0.783-0.402-1.264-0.402
					c-0.494,0-0.935,0.135-1.32,0.402c-0.386,0.27-0.69,0.658-0.912,1.168C368.329,775.565,368.218,776.172,368.218,776.875z"/>
				<path style="fill:#89A29B;" d="M379.14,782.412l0.237-0.58l-3.191-8.035c-0.196-0.461-0.295-0.799-0.295-1.008
					c0-0.221,0.058-0.426,0.171-0.615c0.114-0.191,0.271-0.344,0.47-0.457c0.2-0.115,0.407-0.172,0.623-0.172
					c0.373,0,0.655,0.119,0.846,0.357c0.19,0.236,0.357,0.576,0.503,1.02l2.194,6.383l2.08-5.936
					c0.164-0.48,0.313-0.857,0.446-1.131c0.133-0.271,0.273-0.455,0.422-0.549c0.148-0.096,0.359-0.145,0.632-0.145
					c0.197,0,0.385,0.053,0.565,0.158c0.18,0.103,0.319,0.244,0.417,0.422c0.098,0.178,0.148,0.363,0.148,0.56
					c-0.026,0.119-0.066,0.291-0.124,0.514c-0.058,0.221-0.126,0.447-0.208,0.674l-3.381,8.852
					c-0.292,0.779-0.577,1.389-0.855,1.832c-0.279,0.443-0.647,0.785-1.106,1.022c-0.46,0.238-1.078,0.357-1.857,0.357
					c-0.759,0-1.33-0.082-1.708-0.246c-0.381-0.166-0.57-0.467-0.57-0.904c0-0.297,0.089-0.527,0.271-0.688
					c0.18-0.162,0.448-0.244,0.801-0.244c0.14,0,0.276,0.019,0.409,0.059c0.165,0.037,0.307,0.057,0.427,0.057
					c0.297,0,0.532-0.043,0.704-0.133c0.17-0.088,0.324-0.242,0.46-0.461C378.806,783.158,378.963,782.836,379.14,782.412z"/>
			</g>
			<g>
				<path style="fill:#89A29B;" d="M416.703,771.769h0.618v-0.777c0-0.815,0.1-1.457,0.307-1.938
					c0.204-0.479,0.556-0.826,1.047-1.045c0.49-0.217,1.163-0.326,2.017-0.326c1.52,0,2.273,0.367,2.273,1.113
					c0,0.238-0.079,0.445-0.24,0.615c-0.154,0.17-0.343,0.256-0.558,0.256c-0.1,0-0.278-0.018-0.527-0.059
					c-0.237-0.033-0.452-0.057-0.623-0.057c-0.468,0-0.767,0.141-0.905,0.416c-0.127,0.275-0.195,0.668-0.195,1.183v0.617h0.633
					c0.991,0,1.481,0.297,1.481,0.897c0,0.418-0.127,0.69-0.393,0.805c-0.262,0.113-0.624,0.17-1.089,0.17h-0.633v6.871
					c0,0.512-0.12,0.9-0.369,1.168c-0.241,0.273-0.554,0.406-0.942,0.406c-0.367,0-0.671-0.133-0.918-0.406
					c-0.244-0.268-0.364-0.656-0.364-1.168v-6.871h-0.714c-0.389,0-0.683-0.084-0.893-0.262c-0.209-0.17-0.315-0.398-0.315-0.678
					C415.399,772.078,415.834,771.769,416.703,771.769"/>
				<path style="fill:#89A29B;" d="M425.192,778.344v2.168c0,0.523-0.133,0.92-0.374,1.18c-0.247,0.266-0.559,0.394-0.938,0.394
					c-0.382,0-0.688-0.131-0.927-0.4c-0.236-0.264-0.36-0.656-0.36-1.174v-7.223c0-1.166,0.42-1.748,1.261-1.748
					c0.434,0,0.743,0.135,0.934,0.408c0.189,0.273,0.295,0.674,0.317,1.207c0.308-0.533,0.624-0.934,0.948-1.207
					c0.332-0.273,0.763-0.408,1.31-0.408c0.549,0,1.072,0.135,1.585,0.408c0.516,0.273,0.772,0.637,0.772,1.084
					c0,0.315-0.11,0.58-0.326,0.781c-0.22,0.209-0.454,0.313-0.706,0.313c-0.1,0-0.331-0.063-0.692-0.18
					c-0.365-0.113-0.689-0.174-0.963-0.174c-0.38,0-0.692,0.104-0.932,0.299c-0.242,0.205-0.431,0.496-0.564,0.887
					c-0.129,0.395-0.219,0.865-0.272,1.404C425.215,776.904,425.192,777.566,425.192,778.344"/>
				<path style="fill:#89A29B;" d="M437.113,777.451h-5.074c0.009,0.588,0.124,1.111,0.354,1.559
					c0.235,0.447,0.54,0.787,0.925,1.017c0.385,0.227,0.804,0.34,1.268,0.34c0.311,0,0.593-0.033,0.85-0.111
					c0.254-0.07,0.505-0.186,0.745-0.342c0.242-0.152,0.46-0.318,0.664-0.5c0.202-0.174,0.467-0.416,0.79-0.719
					c0.135-0.113,0.324-0.174,0.568-0.174c0.269,0,0.481,0.074,0.649,0.223c0.166,0.147,0.243,0.35,0.243,0.617
					c0,0.234-0.089,0.508-0.268,0.818c-0.188,0.318-0.463,0.617-0.836,0.906c-0.374,0.285-0.839,0.527-1.397,0.715
					c-0.56,0.189-1.206,0.285-1.932,0.285c-1.671,0-2.964-0.473-3.887-1.422c-0.924-0.951-1.392-2.242-1.392-3.867
					c0-0.768,0.117-1.478,0.348-2.135c0.225-0.658,0.558-1.217,0.999-1.688c0.436-0.471,0.97-0.828,1.612-1.078
					c0.638-0.25,1.347-0.375,2.128-0.375c1.011,0,1.881,0.215,2.606,0.647c0.724,0.422,1.273,0.976,1.629,1.654
					c0.361,0.68,0.542,1.367,0.542,2.074c0,0.648-0.189,1.07-0.562,1.266C438.315,777.356,437.791,777.451,437.113,777.451
					 M432.039,775.977h4.701c-0.063-0.885-0.298-1.549-0.714-1.986c-0.418-0.441-0.959-0.66-1.641-0.66
					c-0.645,0-1.177,0.221-1.592,0.67C432.38,774.445,432.126,775.104,432.039,775.977"/>
				<path style="fill:#89A29B;" d="M447.9,777.451h-5.073c0.006,0.588,0.125,1.111,0.354,1.559c0.232,0.447,0.539,0.787,0.921,1.017
					c0.383,0.227,0.806,0.34,1.272,0.34c0.308,0,0.593-0.033,0.845-0.111c0.259-0.07,0.506-0.186,0.75-0.342
					c0.242-0.152,0.46-0.318,0.664-0.5c0.199-0.174,0.464-0.416,0.788-0.719c0.135-0.113,0.326-0.174,0.568-0.174
					c0.268,0,0.483,0.074,0.65,0.223c0.165,0.147,0.24,0.35,0.24,0.617c0,0.234-0.087,0.508-0.273,0.818
					c-0.177,0.318-0.455,0.617-0.83,0.906c-0.37,0.285-0.84,0.527-1.396,0.715c-0.558,0.189-1.208,0.285-1.935,0.285
					c-1.667,0-2.959-0.473-3.887-1.422c-0.924-0.951-1.389-2.242-1.389-3.867c0-0.768,0.116-1.478,0.348-2.135
					c0.227-0.658,0.559-1.217,0.996-1.688c0.436-0.471,0.973-0.828,1.614-1.078c0.638-0.25,1.351-0.375,2.129-0.375
					c1.009,0,1.878,0.215,2.613,0.647c0.72,0.422,1.266,0.976,1.621,1.654c0.359,0.68,0.545,1.367,0.545,2.074
					c0,0.648-0.191,1.07-0.561,1.266C449.101,777.356,448.576,777.451,447.9,777.451 M442.827,775.977h4.701
					c-0.064-0.885-0.304-1.549-0.715-1.986c-0.421-0.441-0.962-0.66-1.643-0.66c-0.646,0-1.176,0.221-1.593,0.67
					C443.165,774.445,442.911,775.104,442.827,775.977"/>
				<path style="fill:#89A29B;" d="M453.58,773v0.31c0.486-0.602,0.994-1.043,1.524-1.324c0.518-0.285,1.118-0.428,1.782-0.428
					c0.795,0,1.535,0.209,2.207,0.617c0.671,0.414,1.198,1.016,1.589,1.807c0.39,0.795,0.586,1.73,0.586,2.814
					c0,0.795-0.112,1.531-0.336,2.201c-0.224,0.668-0.537,1.227-0.929,1.68c-0.393,0.449-0.855,0.801-1.39,1.045
					c-0.542,0.242-1.111,0.363-1.728,0.363c-0.738,0-1.364-0.148-1.865-0.447c-0.503-0.291-0.982-0.732-1.441-1.305v3.893
					c0,1.135-0.416,1.709-1.244,1.709c-0.49,0-0.809-0.146-0.972-0.439c-0.151-0.299-0.233-0.723-0.233-1.291v-11.193
					c0-0.494,0.106-0.859,0.32-1.107c0.215-0.238,0.512-0.363,0.885-0.363c0.369,0,0.666,0.125,0.896,0.373
					C453.467,772.168,453.58,772.525,453.58,773 M458.664,776.768c0-0.686-0.107-1.273-0.315-1.764
					c-0.209-0.492-0.499-0.867-0.866-1.127c-0.367-0.264-0.782-0.396-1.232-0.396c-0.714,0-1.318,0.283-1.809,0.844
					c-0.492,0.566-0.739,1.395-0.739,2.492c0,1.027,0.244,1.834,0.735,2.406c0.487,0.574,1.086,0.859,1.813,0.859
					c0.429,0,0.83-0.127,1.197-0.373c0.371-0.252,0.665-0.627,0.884-1.127C458.553,778.08,458.664,777.475,458.664,776.768"/>
				<path style="fill:#89A29B;" d="M463.88,770.334c-0.362,0-0.669-0.115-0.923-0.336c-0.26-0.223-0.388-0.531-0.388-0.935
					c0-0.369,0.131-0.67,0.397-0.91c0.262-0.234,0.566-0.355,0.914-0.355c0.34,0,0.636,0.105,0.893,0.318
					c0.26,0.219,0.391,0.535,0.391,0.947c0,0.398-0.127,0.711-0.378,0.935C464.532,770.219,464.231,770.334,463.88,770.334
					 M465.164,773.012v7.502c0,0.516-0.124,0.908-0.37,1.172c-0.25,0.27-0.56,0.4-0.941,0.4c-0.381,0-0.684-0.133-0.928-0.406
					c-0.233-0.275-0.355-0.664-0.355-1.166v-7.428c0-0.51,0.122-0.894,0.355-1.154c0.243-0.264,0.547-0.391,0.928-0.391
					c0.381,0,0.691,0.127,0.941,0.391C465.04,772.191,465.164,772.555,465.164,773.012"/>
				<path style="fill:#89A29B;" d="M473.523,780.902l-2.284-3.766l-1.408,1.328v2.067c0,0.498-0.133,0.881-0.396,1.148
					c-0.257,0.273-0.566,0.406-0.906,0.406c-0.398,0-0.715-0.131-0.94-0.4c-0.227-0.264-0.344-0.656-0.344-1.174v-11.063
					c0-0.574,0.114-1.012,0.331-1.314c0.223-0.305,0.545-0.451,0.953-0.451c0.399,0,0.713,0.137,0.949,0.41
					c0.234,0.271,0.354,0.674,0.354,1.203v6.293l2.916-3.063c0.362-0.377,0.633-0.641,0.827-0.779
					c0.19-0.139,0.419-0.207,0.69-0.207c0.326,0,0.594,0.103,0.815,0.309c0.211,0.205,0.32,0.465,0.32,0.773
					c0,0.379-0.353,0.889-1.055,1.521l-1.377,1.262l2.659,4.183c0.193,0.313,0.339,0.543,0.424,0.705
					c0.084,0.16,0.13,0.32,0.13,0.463c0,0.412-0.114,0.734-0.341,0.975c-0.225,0.236-0.523,0.353-0.886,0.353
					c-0.316,0-0.564-0.08-0.733-0.256C474.051,781.658,473.813,781.348,473.523,780.902"/>
				<path style="fill:#89A29B;" d="M479.159,782.086c-0.392,0-0.728-0.125-1.014-0.381c-0.284-0.248-0.429-0.605-0.429-1.064
					c0-0.385,0.138-0.719,0.41-0.994c0.274-0.279,0.607-0.42,1.008-0.42c0.397,0,0.735,0.141,1.022,0.412
					c0.279,0.275,0.422,0.613,0.422,1.002c0,0.453-0.143,0.809-0.422,1.061C479.87,781.961,479.538,782.086,479.159,782.086"/>
				<path style="fill:#89A29B;" d="M492.058,778.877c0,0.32-0.097,0.668-0.291,1.033c-0.191,0.371-0.488,0.719-0.886,1.051
					c-0.395,0.332-0.892,0.602-1.495,0.803c-0.6,0.203-1.28,0.307-2.03,0.307c-1.607,0-2.858-0.469-3.758-1.4
					c-0.896-0.936-1.346-2.189-1.346-3.76c0-1.068,0.204-2.006,0.619-2.824c0.407-0.814,1.004-1.447,1.781-1.894
					c0.779-0.447,1.716-0.67,2.794-0.67c0.674,0,1.288,0.098,1.853,0.295c0.561,0.195,1.032,0.451,1.425,0.76
					c0.387,0.314,0.686,0.643,0.89,0.992c0.207,0.352,0.308,0.68,0.308,0.986c0,0.309-0.113,0.572-0.343,0.787
					c-0.235,0.215-0.516,0.324-0.839,0.324c-0.219,0-0.397-0.057-0.541-0.166c-0.143-0.111-0.305-0.289-0.478-0.541
					c-0.317-0.478-0.647-0.842-0.996-1.08c-0.343-0.242-0.78-0.361-1.313-0.361c-0.762,0-1.384,0.297-1.854,0.897
					c-0.468,0.596-0.703,1.42-0.703,2.455c0,0.488,0.063,0.94,0.183,1.348c0.117,0.406,0.291,0.756,0.52,1.043
					c0.23,0.287,0.504,0.506,0.826,0.654c0.324,0.154,0.681,0.227,1.064,0.227c0.521,0,0.967-0.121,1.337-0.361
					c0.376-0.24,0.702-0.607,0.986-1.102c0.158-0.291,0.327-0.517,0.509-0.684c0.183-0.164,0.409-0.25,0.676-0.25
					c0.316,0,0.58,0.123,0.786,0.363C491.951,778.348,492.058,778.606,492.058,778.877"/>
				<path style="fill:#89A29B;" d="M503.248,776.816c0,0.769-0.122,1.484-0.355,2.139c-0.247,0.652-0.592,1.213-1.05,1.678
					c-0.455,0.469-1.002,0.828-1.632,1.08c-0.64,0.248-1.35,0.375-2.139,0.375c-0.785,0-1.493-0.127-2.121-0.383
					c-0.623-0.248-1.171-0.613-1.626-1.082c-0.461-0.477-0.809-1.033-1.052-1.676c-0.229-0.645-0.35-1.356-0.35-2.131
					c0-0.787,0.124-1.506,0.358-2.158c0.242-0.654,0.589-1.213,1.039-1.674c0.451-0.461,0.993-0.816,1.631-1.07
					c0.643-0.248,1.35-0.373,2.121-0.373c0.784,0,1.498,0.125,2.139,0.381c0.638,0.252,1.183,0.615,1.644,1.08
					c0.458,0.475,0.803,1.029,1.04,1.672C503.128,775.324,503.248,776.033,503.248,776.816 M500.645,776.816
					c0-1.059-0.234-1.881-0.698-2.469c-0.463-0.596-1.09-0.889-1.874-0.889c-0.508,0-0.955,0.133-1.343,0.395
					c-0.387,0.262-0.681,0.648-0.89,1.164c-0.209,0.514-0.315,1.113-0.315,1.799c0,0.678,0.103,1.268,0.31,1.773
					c0.208,0.51,0.502,0.897,0.886,1.166c0.386,0.266,0.835,0.404,1.353,0.404c0.784,0,1.411-0.297,1.874-0.893
					C500.41,778.678,500.645,777.857,500.645,776.816"/>
				<path style="fill:#89A29B;" d="M513.14,777.006v3.447c0,0.547-0.12,0.951-0.369,1.227c-0.25,0.273-0.571,0.408-0.978,0.408
					c-0.393,0-0.714-0.135-0.951-0.408c-0.247-0.275-0.372-0.68-0.372-1.227v-4.131c0-0.654-0.021-1.162-0.063-1.525
					c-0.046-0.353-0.168-0.654-0.362-0.883c-0.196-0.234-0.509-0.352-0.931-0.352c-0.851,0-1.407,0.291-1.677,0.881
					c-0.268,0.576-0.406,1.414-0.406,2.508v3.502c0,0.537-0.122,0.945-0.361,1.223c-0.249,0.273-0.567,0.412-0.965,0.412
					c-0.396,0-0.717-0.139-0.967-0.412c-0.252-0.277-0.376-0.686-0.376-1.223v-7.42c0-0.488,0.111-0.859,0.335-1.111
					c0.229-0.256,0.526-0.381,0.89-0.381c0.357,0,0.651,0.123,0.892,0.355c0.236,0.238,0.355,0.566,0.355,0.984v0.244
					c0.453-0.535,0.935-0.932,1.444-1.18c0.517-0.26,1.082-0.387,1.713-0.387c0.651,0,1.211,0.131,1.678,0.391
					c0.47,0.26,0.854,0.654,1.16,1.176c0.44-0.527,0.909-0.922,1.41-1.18c0.5-0.258,1.053-0.387,1.662-0.387
					c0.706,0,1.321,0.143,1.834,0.42c0.51,0.277,0.893,0.68,1.147,1.195c0.221,0.473,0.33,1.209,0.33,2.217v5.063
					c0,0.547-0.122,0.951-0.367,1.227c-0.246,0.273-0.575,0.408-0.98,0.408c-0.395,0-0.714-0.139-0.965-0.412
					c-0.25-0.277-0.376-0.686-0.376-1.223v-4.361c0-0.559-0.023-1.004-0.069-1.338c-0.047-0.338-0.177-0.621-0.383-0.848
					c-0.212-0.227-0.53-0.344-0.953-0.344c-0.342,0-0.666,0.107-0.974,0.309c-0.307,0.197-0.547,0.477-0.721,0.813
					C513.238,775.121,513.14,775.896,513.14,777.006"/>
			</g>
			<g>
				<path style="fill:#89A29B;" d="M392.435,776.188c-0.002-0.004-0.002-0.01-0.002-0.018
					C392.433,776.178,392.433,776.184,392.435,776.188z"/>
				<path style="fill:#89A29B;" d="M392.566,777.018c0.002,0,0.002,0,0.003,0c-0.05-0.236-0.088-0.471-0.119-0.703
					C392.48,776.549,392.519,776.783,392.566,777.018z"/>
				<path style="fill:#89A29B;" d="M393.424,779.424c-0.006-0.01-0.011-0.022-0.017-0.033
					C393.414,779.402,393.418,779.414,393.424,779.424z"/>
				<path style="fill:#89A29B;" d="M393.342,779.264c-0.022-0.045-0.044-0.09-0.065-0.135
					C393.298,779.176,393.32,779.219,393.342,779.264z"/>
				<path style="fill:#89A29B;" d="M392.807,777.943c0.127,0.4,0.28,0.789,0.457,1.158c-0.18-0.377-0.33-0.766-0.454-1.158
					C392.81,777.943,392.808,777.943,392.807,777.943z"/>
				<path style="fill:#89A29B;" d="M402.473,766.252c0.501,0,0.871,0.039,1.295,0.111l0.12-0.764c0,0-1.171-0.359-2.71-0.234
					l-0.121-0.414c0.479-0.102,0.838-0.527,0.838-1.035c0-0.582-0.475-1.053-1.058-1.053s-1.056,0.471-1.056,1.053
					c0,0.508,0.358,0.934,0.836,1.035l0.134,0.463c-1.634,0.225-2.935,0.861-2.935,0.861l0.23,0.705
					c0.989-0.328,1.846-0.529,2.624-0.613C401.432,766.287,402.006,766.252,402.473,766.252z"/>
				<path style="fill:#89A29B;" d="M393.405,770.109l0.006-0.008c0.039-0.049,0.076-0.096,0.113-0.143l-0.313-0.225l-0.488-0.357
					c-0.027,0.039-0.795,0.744-1.401,2.049c-0.025-0.041-0.056-0.082-0.09-0.119c-0.182-0.199-0.436-0.301-0.758-0.295
					c-0.004,0-0.009,0-0.015,0c-0.2,0-0.337-0.066-0.427-0.147c0.089-0.113,0.143-0.256,0.143-0.414c0-0.367-0.3-0.668-0.669-0.668
					c-0.369,0-0.668,0.301-0.668,0.668c0,0.371,0.3,0.67,0.668,0.67c0.058,0,0.113-0.01,0.167-0.021
					c0.165,0.184,0.425,0.342,0.808,0.334c0.197-0.002,0.341,0.049,0.438,0.156c0.111,0.121,0.148,0.295,0.16,0.428
					c-0.001,0.002-0.001,0.004-0.003,0.004c-0.435,1.189-0.311,2.67-0.311,2.67l1.057,0.043c0.021-0.539,0.099-1.482,0.372-2.23
					C392.719,771.055,393.378,770.148,393.405,770.109z"/>
				<path style="fill:#89A29B;" d="M411.672,767.135c-0.368,0-0.669,0.299-0.669,0.67c0,0.057,0.009,0.111,0.023,0.164
					c-0.184,0.166-0.343,0.428-0.337,0.81c0.003,0.197-0.048,0.34-0.154,0.438c-0.085,0.074-0.191,0.115-0.296,0.141
					c-0.787-1.104-1.756-1.775-1.756-1.775l-0.759,0.813c0.573,0.522,1.159,1.176,1.729,1.99c0.394,0.564,0.799,1.291,1.136,2.016
					l1.024-0.486c0,0-0.468-1.156-1.126-2.191c0.114-0.041,0.229-0.104,0.331-0.193c0.2-0.18,0.299-0.435,0.293-0.758
					c-0.002-0.207,0.066-0.348,0.148-0.441c0.114,0.088,0.257,0.143,0.412,0.143c0.371,0,0.67-0.299,0.67-0.668
					C412.342,767.434,412.043,767.135,411.672,767.135z"/>
				<path style="fill:#89A29B;" d="M409.015,776.338c-1.409,0.685-3.728,1.594-6.781,2.02c-1.198,0.166-2.359,0.227-3.428,0.227
					c-1.391,0-2.62-0.103-3.563-0.223c-1.076-0.135-1.917-0.301-2.432-0.418c0.124,0.392,0.274,0.781,0.454,1.158
					c0.003,0.01,0.008,0.021,0.013,0.027c0.021,0.045,0.043,0.09,0.065,0.135c0.022,0.043,0.043,0.086,0.065,0.127
					c0.006,0.012,0.011,0.023,0.017,0.033c0.303,0.57,0.667,1.094,1.081,1.549c1.44,1.574,2.907,1.824,2.921,1.826l0.023,0.002
					l0.021,0.008c0.013,0.006,1.314,0.426,3.292,0.426c1.945,0,3.854-0.393,5.674-1.168c1.348-0.689,2.622-1.736,3.254-2.67
					c0.488-0.723,0.841-1.492,1.05-2.293c0.111-0.426,0.199-1.107,0.147-1.826C410.49,775.545,409.863,775.924,409.015,776.338z"/>
				<path style="fill:#89A29B;" d="M393.857,770.443c-0.041,0.06-0.652,0.926-1.135,2.254c-0.362,0.994-0.346,2.443-0.346,2.459
					v0.004c0,0.34,0.019,0.676,0.057,1.01c0,0.008,0,0.014,0.002,0.018c0.004,0.043,0.011,0.084,0.015,0.127
					c0.03,0.232,0.069,0.467,0.119,0.703c0.7,0.178,4.879,1.152,9.548,0.502c2.927-0.408,5.149-1.273,6.499-1.928
					c1.121-0.543,1.842-1.035,2.12-1.238c-0.277-1.027-1.042-2.641-1.743-3.647c-2.005-2.865-4.167-3.6-5.277-3.783
					c-0.424-0.068-0.763-0.109-1.243-0.109c-0.447,0-1.002,0.037-1.743,0.115c-0.743,0.076-1.572,0.271-2.532,0.596
					c-1.348,0.451-2.567,1.158-3.527,2.047l-0.033,0.031C394.496,769.734,394.199,770.01,393.857,770.443z M406.127,769.777
					c0.961,0,1.743,0.781,1.743,1.742c0,0.963-0.782,1.744-1.743,1.744c-0.962,0-1.742-0.781-1.742-1.744
					C404.385,770.559,405.165,769.777,406.127,769.777z M397.885,769.707c1.557,0,2.817,1.262,2.817,2.818
					c0,1.555-1.26,2.814-2.817,2.814c-1.555,0-2.816-1.26-2.816-2.814C395.069,770.969,396.331,769.707,397.885,769.707z"/>
			</g>
		</g>
		<g>
			<path style="fill:none;stroke:#765853;stroke-width:3;stroke-linecap:round;stroke-miterlimit:10;" d="M250.5,657V533.176
				c-52-39.777-84.119-102.107-84.119-172.176c0-120.122,97.75-217.5,217.872-217.5c109.292,0,205.965,79.5,213.085,195.5
				c1.377,22.423,34.885,66.041,35.878,77c3.692,40.761-49.294,35.5-49.294,35.5"/>
			<g>
				<g>
					<path style="fill:#765853;" d="M276.156,469.032c10.729,8.586,26.388,6.849,34.975-3.882
						c8.587-10.73,6.849-26.391-3.879-34.976c-10.729-8.585-26.388-6.848-34.975,3.882
						C263.69,444.787,265.428,460.446,276.156,469.032z M300.721,438.336c6.224,4.979,7.23,14.061,2.25,20.284
						c-4.98,6.223-14.061,7.232-20.284,2.251c-6.224-4.979-7.23-14.06-2.249-20.283
						C285.418,434.365,294.498,433.355,300.721,438.336z"/>
					<path style="fill:#D2FAED;" d="M282.687,460.871c6.223,4.98,15.303,3.972,20.284-2.251c4.98-6.224,3.974-15.305-2.25-20.284
						c-6.223-4.98-15.303-3.971-20.283,2.252C275.457,446.811,276.463,455.892,282.687,460.871z"/>
				</g>
				<g>
					<path style="fill:none;stroke:#765853;stroke-width:3;stroke-linecap:round;stroke-miterlimit:10;" d="M327.106,477.822
						c2.971-3.728,5.224-7.805,6.843-12.032l8.529,3.264c3.104-8.103,4.212-16.966,3.221-25.625l-9.092,1.038
						c-0.52-4.556-1.742-9.032-3.622-13.26l8.413-3.781c-3.501-7.87-8.881-14.954-15.646-20.368l-0.107-0.086l-5.707,7.242
						c-3.719-2.969-7.789-5.218-12.005-6.84l3.27-8.522c-8.097-3.11-16.959-4.23-25.619-3.248l1.026,9.089
						c-4.583,0.521-9.086,1.751-13.339,3.646l-3.892-8.611c-7.895,3.501-15.193,8.731-20.618,15.51l-0.057,0.071l7.624,6.04
						c-2.964,3.711-5.216,7.772-6.837,11.981l-8.52-3.276c-3.121,8.097-4.248,16.959-3.271,25.616l9.086-1.019
						c0.521,4.614,1.758,9.146,3.672,13.425l-8.808,4c3.498,7.912,8.574,15.425,15.371,20.865l0.036,0.028l6.373-8.007
						c3.705,2.963,7.757,5.214,11.958,6.837l-3.285,8.516c8.093,3.13,16.954,4.264,25.613,3.298l-1.01-9.091
						c4.584-0.511,9.089-1.733,13.347-3.62l3.874,8.617c7.936-3.501,15.27-8.744,20.718-15.553l0.114-0.143L327.106,477.822z
						 M307.252,430.175c10.728,8.585,12.466,24.245,3.879,34.976c-8.587,10.73-24.246,12.468-34.975,3.882
						c-10.729-8.586-12.466-24.245-3.879-34.976C280.864,423.327,296.523,421.59,307.252,430.175z"/>
					<path style="fill:none;stroke:#765853;stroke-width:3;stroke-linecap:round;stroke-miterlimit:10;" d="M276.156,469.032
						c10.729,8.586,26.388,6.849,34.975-3.882c8.587-10.73,6.849-26.391-3.879-34.976c-10.729-8.585-26.388-6.848-34.975,3.882
						C263.69,444.787,265.428,460.446,276.156,469.032z M300.721,438.336c6.224,4.979,7.23,14.061,2.25,20.284
						c-4.98,6.223-14.061,7.232-20.284,2.251c-6.224-4.979-7.23-14.06-2.249-20.283
						C285.418,434.365,294.498,433.355,300.721,438.336z"/>
					<path style="fill:none;stroke:#765853;stroke-width:3;stroke-linecap:round;stroke-miterlimit:10;" d="M282.687,460.871
						c6.223,4.98,15.303,3.972,20.284-2.251c4.98-6.224,3.974-15.305-2.25-20.284c-6.223-4.98-15.303-3.971-20.283,2.252
						C275.457,446.811,276.463,455.892,282.687,460.871z"/>
				</g>
			</g>
			<g>
				<g>
					<path style="fill:#D2FAED;" d="M302.409,351.635c1.556-3.572,2.616-7.234,3.208-10.912l10.337,1.662
						c1.31-8.149,0.761-16.657-1.589-24.604l-10.045,2.97c-1.079-3.647-2.613-7.148-4.566-10.42l8.998-5.37
						c-4.246-7.115-10.133-13.287-17.022-17.85l-5.786,8.737c-2.123-1.406-4.385-2.661-6.794-3.722
						c-1.124-0.495-2.26-0.926-3.399-1.323l3.448-9.897c-7.928-2.763-16.173-3.686-24.507-2.745l1.175,10.412
						c-3.794,0.429-7.509,1.329-11.055,2.678l-3.723-9.789c-7.742,2.945-14.843,7.657-20.535,13.626l7.577,7.225
						c-2.584,2.709-4.858,5.776-6.747,9.166l-9.149-5.099c-0.849,1.524-1.638,3.111-2.346,4.718
						c-2.653,6.025-4.209,12.386-4.625,18.907l10.444,0.667c-0.245,3.83,0.013,7.641,0.721,11.349l-10.288,1.967
						c1.552,8.116,4.952,15.923,9.833,22.579l8.45-6.197c2.228,3.039,4.849,5.816,7.833,8.252l-6.626,8.117
						c3.881,3.168,8.189,5.804,12.809,7.838c2.984,1.314,6.091,2.371,9.235,3.142l2.496-10.178c3.753,0.92,7.547,1.341,11.3,1.292
						l0.138,10.477c8.246-0.108,16.527-2.098,23.949-5.754l-4.628-9.395c3.379-1.664,6.561-3.746,9.454-6.223l6.758,7.854
						c6.344-5.447,11.173-12.16,14.564-19.859l0.104-0.238L302.409,351.635z M283.716,343.608
						c-5.548,12.599-20.26,18.316-32.857,12.769c-12.598-5.547-18.314-20.259-12.766-32.858c5.548-12.6,20.259-18.316,32.856-12.769
						C283.547,316.297,289.264,331.008,283.716,343.608z"/>
					<path style="fill:#765853;" d="M238.093,323.519c-5.548,12.6,0.168,27.311,12.766,32.858
						c12.598,5.547,27.31-0.17,32.857-12.769c5.548-12.6-0.169-27.311-12.767-32.858
						C258.352,305.203,243.641,310.918,238.093,323.519z M266.729,320.332c7.308,3.218,10.621,11.748,7.403,19.056
						c-3.218,7.307-11.747,10.623-19.054,7.405c-7.307-3.218-10.621-11.748-7.403-19.055
						C250.893,320.431,259.422,317.115,266.729,320.332z"/>
					<path style="fill:#D2FAED;" d="M255.078,346.793c7.308,3.218,15.836-0.098,19.054-7.405c3.218-7.308-0.095-15.838-7.403-19.056
						c-7.307-3.218-15.837,0.098-19.055,7.406C244.457,335.045,247.771,343.576,255.078,346.793z"/>
				</g>
				<g>
					<path style="fill:none;stroke:#765853;stroke-width:3;stroke-linecap:round;stroke-miterlimit:10;" d="M302.409,351.635
						c1.556-3.572,2.616-7.234,3.208-10.912l10.337,1.662c1.31-8.149,0.761-16.657-1.589-24.604l-10.045,2.97
						c-1.079-3.647-2.613-7.148-4.566-10.42l8.998-5.37c-4.246-7.115-10.133-13.287-17.022-17.85l-5.786,8.737
						c-2.123-1.406-4.385-2.661-6.794-3.722c-1.124-0.495-2.26-0.926-3.399-1.323l3.448-9.897
						c-7.928-2.763-16.173-3.686-24.507-2.745l1.175,10.412c-3.794,0.429-7.509,1.329-11.055,2.678l-3.723-9.789
						c-7.742,2.945-14.843,7.657-20.535,13.626l7.577,7.225c-2.584,2.709-4.858,5.776-6.747,9.166l-9.149-5.099
						c-0.849,1.524-1.638,3.111-2.346,4.718c-2.653,6.025-4.209,12.386-4.625,18.907l10.444,0.667
						c-0.245,3.83,0.013,7.641,0.721,11.349l-10.288,1.967c1.552,8.116,4.952,15.923,9.833,22.579l8.45-6.197
						c2.228,3.039,4.849,5.816,7.833,8.252l-6.626,8.117c3.881,3.168,8.189,5.804,12.809,7.838c2.984,1.314,6.091,2.371,9.235,3.142
						l2.496-10.178c3.753,0.92,7.547,1.341,11.3,1.292l0.138,10.477c8.246-0.108,16.527-2.098,23.949-5.754l-4.628-9.395
						c3.379-1.664,6.561-3.746,9.454-6.223l6.758,7.854c6.344-5.447,11.173-12.16,14.564-19.859l0.104-0.238L302.409,351.635z
						 M283.716,343.608c-5.548,12.599-20.26,18.316-32.857,12.769c-12.598-5.547-18.314-20.259-12.766-32.858
						c5.548-12.6,20.259-18.316,32.856-12.769C283.547,316.297,289.264,331.008,283.716,343.608z"/>
					<path style="fill:none;stroke:#765853;stroke-width:3;stroke-linecap:round;stroke-miterlimit:10;" d="M238.093,323.519
						c-5.548,12.6,0.168,27.311,12.766,32.858c12.598,5.547,27.31-0.17,32.857-12.769c5.548-12.6-0.169-27.311-12.767-32.858
						C258.352,305.203,243.641,310.918,238.093,323.519z M266.729,320.332c7.308,3.218,10.621,11.748,7.403,19.056
						c-3.218,7.307-11.747,10.623-19.054,7.405c-7.307-3.218-10.621-11.748-7.403-19.055
						C250.893,320.431,259.422,317.115,266.729,320.332z"/>
					<path style="fill:none;stroke:#765853;stroke-width:3;stroke-linecap:round;stroke-miterlimit:10;" d="M255.078,346.793
						c7.308,3.218,15.836-0.098,19.054-7.405c3.218-7.308-0.095-15.838-7.403-19.056c-7.307-3.218-15.837,0.098-19.055,7.406
						C244.457,335.045,247.771,343.576,255.078,346.793z"/>
				</g>
			</g>
			<rect x="237.468" y="237.499" style="fill:none;" width="94.318" height="29"/>
			<text transform="matrix(1 0 0 1 237.4683 258.4985)" style="fill:#765853; font-family:'Quicksand-Bold'; font-size:30px;">study</text>
			<rect x="387.228" y="265.499" style="fill:none;" width="174.844" height="38.501"/>
			<text transform="matrix(1 0 0 1 387.2285 284.3984)" style="fill:#765853; font-family:'Quicksand-Bold'; font-size:27px;">education</text>
			<rect x="202.227" y="262.738" style="fill:none;" width="16.889" height="23.919"/>
			<text transform="matrix(1 0 0 1 202.2275 281.6377)" style="fill:#765853; font-family:'Quicksand-Bold'; font-size:27px;">+</text>
			<rect x="445.765" y="298.149" style="fill:none;" width="24.759" height="29.252"/>
			<text transform="matrix(1 0 0 1 445.7646 317.0493)" style="fill:#765853; font-family:'Quicksand-Bold'; font-size:27px;">ø</text>
			<rect x="567.348" y="305" style="fill:none;" width="16.889" height="23.919"/>
			<text transform="matrix(1 0 0 1 567.3472 323.8999)" style="fill:#765853; font-family:'Quicksand-Bold'; font-size:27px;">+</text>
			<rect x="597.052" y="409.551" style="fill:none;" width="16.889" height="23.918"/>
			<text transform="matrix(1 0 0 1 597.0513 428.4507)" style="fill:#765853; font-family:'Quicksand-Bold'; font-size:27px;">?</text>
			<rect x="482.582" y="185.667" style="fill:none;" width="16.889" height="23.918"/>
			<text transform="matrix(1 0 0 1 482.5815 204.5669)" style="fill:#765853; font-family:'Quicksand-Bold'; font-size:27px;">+</text>
			<rect x="182.65" y="359.663" style="fill:none;" width="16.889" height="23.918"/>
			<text transform="matrix(1 0 0 1 182.6499 378.5625)" style="fill:#765853; font-family:'Quicksand-Bold'; font-size:27px;">÷</text>
			<rect x="331.663" y="371.622" style="fill:none;" width="16.889" height="23.918"/>
			<text transform="matrix(1 0 0 1 331.6626 390.5215)" style="fill:#765853; font-family:'Quicksand-Bold'; font-size:27px;">÷</text>
			<rect x="384.125" y="392.996" style="fill:none;" width="30.222" height="23.504"/>
			<text transform="matrix(1 0 0 1 384.125 411.896)" style="fill:#765853; font-family:'Quicksand-Bold'; font-size:27px;">@</text>
			<rect x="272.817" y="530.998" style="fill:none;" width="174.843" height="38.502"/>
			<text transform="matrix(1 0 0 1 272.8169 551.2983)" style="fill:#765853; font-family:'Quicksand-Bold'; font-size:29px;">knowledge</text>
			<path style="fill:none;stroke:#765853;stroke-width:3;stroke-linecap:round;stroke-miterlimit:10;" d="M450.047,499.683
				l-0.004-21.563c-9.125,0.002-19.076,6.64-19.072,21.637c0.004,17.732,11.37,21.689,13.277,29.48l0.026,118.493
				c0.003,5.268,4.272,9.537,9.541,9.536c5.268,0,9.536-4.272,9.534-9.541l-0.023-107.405
				c-0.006-23.903,16.585-21.294,16.579-41.474c-0.005-17.002-17.422-19.072-17.422-19.072l0.006,20.183
				C455.853,501.064,450.047,499.683,450.047,499.683z"/>
			<polygon style="fill:none;stroke:#765853;stroke-width:3;stroke-linecap:round;stroke-miterlimit:10;" points="384.998,238.5 
				404.494,253.497 423.99,238.5 416.5,238.5 416.5,161.5 393.5,161.5 393.5,238.5 			"/>
			<polygon style="fill:none;stroke:#765853;stroke-width:3;stroke-linecap:round;stroke-miterlimit:10;" points="339.998,298.5 
				359.494,313.497 378.99,298.5 371.5,298.5 371.5,161.5 348.5,161.5 348.5,298.5 			"/>
			<g>
				<path style="fill:none;stroke:#765853;stroke-width:3;stroke-linecap:round;stroke-miterlimit:10;" d="M581.387,345.971l-7-6.17
					c-5.227-3.483-10.976-5.493-17.231-6.029c-3.109,0.155-6.214,0.309-9.322,0.461c-6.492,1.225-12.235,3.993-17.238,8.304
					c-7.029,6.134-11.443,14.942-12.197,24.233c-0.778,9.602,2.432,19.3,8.765,26.558l7,6.174c0.044,0.028,0.093,0.052,0.138,0.084
					c-0.018,0.154-0.036,0.307-0.051,0.461c-0.829,10.208,7.419,21.411,18.276,21.462c5.516,0.027,10.438-1.127,14.706-4.855
					c3.896-3.395,6.34-8.271,6.758-13.418c0.092-1.142,0.063-2.297-0.06-3.446c1.392-0.908,2.735-1.914,4.023-3.025
					c7.032-6.133,11.446-14.944,12.2-24.235C590.932,362.928,587.722,353.232,581.387,345.971z"/>
				<path style="fill:#765853;" d="M568.086,425.906c0.542-0.808,1.548-2.673,1.015-4.626c0.185-0.229,3.107-3.936,0.594-7.201
					c0,0-14.113,5.947-30.755,0.424c0,0-2.293,2.826,0.67,6.943c0,0,0.018,0.006,0.036,0.014c-0.28,1.05-0.294,2.659,0.971,4.619
					c-0.291,1.041-0.331,2.698,1.13,4.728c0,0,0.474,0.208,1.324,0.503c1.54,4.282,5.408,7.859,10.117,7.88
					c5.419,0.028,10.322-2.883,12.057-7.845c0.541-0.202,1.081-0.419,1.623-0.663C566.867,430.682,568.791,428.357,568.086,425.906z
					 M567.744,425.067c-0.102-0.181-0.217-0.364-0.358-0.543C567.527,424.703,567.643,424.887,567.744,425.067z M565.896,427.101
					c0.625-0.233,1.254-0.481,1.881-0.765C567.15,426.619,566.521,426.867,565.896,427.101z"/>
				<path style="fill:none;stroke:#765853;stroke-width:3;stroke-linecap:round;stroke-miterlimit:10;" d="M548.229,417.699
					c0-0.001-1.77-29.202-1.77-29.202s-17.92-20.574-7.08-30.973c10.912-10.468,25.002,17.752,14.181,18.363
					c-11.747,0.664,0.324-29.488,13.252-21.018c12.832,8.408-6.415,34.369-6.415,34.369s0.221,28.46,0.221,28.461"/>
			</g>
			<g>
				<path style="fill:none;stroke:#765853;stroke-width:3;stroke-linecap:round;stroke-linejoin:round;stroke-miterlimit:10;" d="
					M461.462,347.698c0,0,9.537,12.682,22.884,4.693c13.341-7.984,19.932-4.306,19.932-4.306s-22.271-26.914-41.872-7.403
					L461.462,347.698z"/>
				<path style="fill:none;stroke:#765853;stroke-width:3;stroke-linecap:round;stroke-miterlimit:10;" d="M335.231,344.742
					c-0.166,18.689,127.675,13.821,127.79,1.164C463.135,333.24,335.397,326.655,335.231,344.742z"/>
				<polygon style="fill:#765853;stroke:#765853;stroke-width:3;stroke-linecap:round;stroke-miterlimit:10;" points="
					437.28,336.626 437.116,354.711 463.645,350.128 463.73,340.483 				"/>
				<path style="fill:none;stroke:#765853;stroke-width:3;stroke-linecap:round;stroke-linejoin:round;stroke-miterlimit:10;" d="
					M483.4,334.226c0,0,5.278,7.69-0.53,11.442c-5.81,3.751,0,5.937,0,5.937"/>
				<path style="fill:none;stroke:#765853;stroke-width:3;stroke-linecap:round;stroke-linejoin:round;stroke-miterlimit:10;" d="
					M390.542,340.325c0,0-29.287-1.673-45.128,3.983"/>
			</g>
			<path style="fill:none;stroke:#765853;stroke-width:3;stroke-linecap:round;stroke-linejoin:round;stroke-miterlimit:10;" d="
				M328.657,217.458c0-4.573-3.02-9.07-5.841-11.016c-3.35-2.312-8.78-3.302-13.375-1.054c0.71-1.425,1.174-3.024,1.308-4.794
				c0.514-6.73-4.957-14.088-12.114-14.088c-7.161,0-13.514,4.583-14.089,12.115c-0.147,1.934,0.202,3.921,0.941,5.769
				c-1.097-0.16-2.207-0.138-3.331,0.067c-1.006,0.306-2.082,0.515-3.01,1.017c-1.692,0.833-3.064,2.03-4.115,3.595
				c-1.004,1.522-1.579,3.193-1.726,5.011c-0.087,1.144,0.024,2.286,0.308,3.378H328.657z"/>
			<path style="fill:none;stroke:#765853;stroke-width:3;stroke-linecap:round;stroke-linejoin:round;stroke-miterlimit:10;" d="
				M539.268,247.298c0.101-0.527,0.188-1.044,0.258-1.518c-0.07-1.292-0.14-2.583-0.211-3.875c-0.523-2.695-1.685-5.079-3.487-7.15
				c-2.566-2.911-6.236-4.728-10.102-5.023c-3.271-0.251-6.563,0.616-9.301,2.394c-1.516-6.671-7.269-12.67-14.399-12.67
				c-2.532,0-4.979,0.473-7.194,1.365c0.1-3.523-1.146-7.021-3.482-9.672c-0.912-0.796-1.824-1.592-2.737-2.388
				c-2.043-1.346-4.281-2.119-6.721-2.314c-1.208,0.065-2.419,0.13-3.628,0.197c-2.524,0.49-4.756,1.577-6.696,3.266
				c-2.724,2.401-4.427,5.839-4.702,9.459c-0.149,1.951,0.133,3.906,0.783,5.733c-5.779,0.902-10.526,5.036-11.008,11.35
				c-0.028,0.374-0.031,0.749-0.022,1.124c-1.821,0.556-3.557,1.504-5.105,2.87c-2.064,1.817-3.522,4.236-4.258,6.854H539.268z"/>
			<path style="fill:none;stroke:#765853;stroke-width:3;stroke-linecap:round;stroke-linejoin:round;stroke-miterlimit:10;" d="
				M456.574,178.939c-4.121,0.407-5.822,5.106-6.204,6.365c-0.411-1.412-2.05-6.005-6.069-6.472c-5.537-0.646-9.136,3.782-8.59,9.33
				c0.542,5.547,14.034,16.412,14.034,16.414c4.811-4.385,14.202-10.873,14.849-16.408
				C465.237,182.629,462.122,178.393,456.574,178.939z"/>
			<g>
				<path style="fill:none;stroke:#765853;stroke-width:3;stroke-linecap:round;stroke-linejoin:round;stroke-miterlimit:10;" d="
					M533.707,313.402c-2.234,4.646-8.465,6.286-13.916,3.665c-5.451-2.622-8.06-8.512-5.826-13.158
					c2.234-4.645,8.464-6.286,13.915-3.665C533.331,302.866,535.94,308.757,533.707,313.402z"/>
				<path style="fill:none;stroke:#765853;stroke-width:3;stroke-linecap:round;stroke-linejoin:round;stroke-miterlimit:10;" d="
					M533.976,312.775l17.694-38.079c0,0,8.191,19.257-2.478,29.138"/>
			</g>
			<g>
				
					<path style="fill:#D2FAED;stroke:#765853;stroke-width:3;stroke-linecap:round;stroke-linejoin:round;stroke-miterlimit:10;" d="
					M347.5,649.733c0,0-15-6.286-52-7.394c0-25.506,0-55.078,0-74.67c35,0,52,11.829,52,11.829V649.733z"/>
				<path style="fill:none;stroke:#765853;stroke-width:3;stroke-linecap:round;stroke-linejoin:round;stroke-miterlimit:10;" d="
					M294,573.5h-10.5v79h56.415c0,0,1.552,4.859,7.045,4.859"/>
				
					<path style="fill:#D2FAED;stroke:#765853;stroke-width:3;stroke-linecap:round;stroke-linejoin:round;stroke-miterlimit:10;" d="
					M347.5,649.733c0,0,12-6.286,52-7.394c0-25.506,0-55.078,0-74.67c-38,0-52,11.829-52,11.829V649.733z"/>
				<path style="fill:none;stroke:#765853;stroke-width:3;stroke-linecap:round;stroke-linejoin:round;stroke-miterlimit:10;" d="
					M400,573.5h10.5v79h-56.216c0,0-2.181,4.859-7.674,4.859"/>
				<g>
					
						<path style="fill:#FFFFFF;stroke:#765853;stroke-width:2.8891;stroke-linecap:round;stroke-linejoin:round;stroke-miterlimit:10;" d="
						M304.702,576.417c0,0,23.665,1.726,35.214,8.625"/>
					
						<path style="fill:#FFFFFF;stroke:#765853;stroke-width:2.8891;stroke-linecap:round;stroke-linejoin:round;stroke-miterlimit:10;" d="
						M304.702,585.659c0,0,23.551,1.589,35.167,8.05"/>
					
						<path style="fill:#FFFFFF;stroke:#765853;stroke-width:2.8891;stroke-linecap:round;stroke-linejoin:round;stroke-miterlimit:10;" d="
						M304.702,594.9c0,0,23.437,1.452,35.12,7.475"/>
					
						<path style="fill:#FFFFFF;stroke:#765853;stroke-width:2.8891;stroke-linecap:round;stroke-linejoin:round;stroke-miterlimit:10;" d="
						M304.702,604.142c0,0,23.324,1.314,35.072,6.899"/>
					
						<path style="fill:#FFFFFF;stroke:#765853;stroke-width:2.8891;stroke-linecap:round;stroke-linejoin:round;stroke-miterlimit:10;" d="
						M304.702,613.384c0,0,23.21,1.177,35.025,6.324"/>
					
						<path style="fill:#FFFFFF;stroke:#765853;stroke-width:2.8891;stroke-linecap:round;stroke-linejoin:round;stroke-miterlimit:10;" d="
						M304.702,622.625c0,0,23.096,1.04,34.978,5.749"/>
					
						<path style="fill:#FFFFFF;stroke:#765853;stroke-width:2.8891;stroke-linecap:round;stroke-linejoin:round;stroke-miterlimit:10;" d="
						M304.702,631.867c0,0,22.982,0.903,34.931,5.174"/>
				</g>
				<g>
					
						<path style="fill:#FFFFFF;stroke:#765853;stroke-width:2.8891;stroke-linecap:round;stroke-linejoin:round;stroke-miterlimit:10;" d="
						M389.497,576.417c0,0-23.665,1.726-35.213,8.625"/>
					
						<path style="fill:#FFFFFF;stroke:#765853;stroke-width:2.8891;stroke-linecap:round;stroke-linejoin:round;stroke-miterlimit:10;" d="
						M389.497,585.659c0,0-23.551,1.589-35.167,8.05"/>
					
						<path style="fill:#FFFFFF;stroke:#765853;stroke-width:2.8891;stroke-linecap:round;stroke-linejoin:round;stroke-miterlimit:10;" d="
						M389.497,594.9c0,0-23.437,1.452-35.12,7.475"/>
					
						<path style="fill:#FFFFFF;stroke:#765853;stroke-width:2.8891;stroke-linecap:round;stroke-linejoin:round;stroke-miterlimit:10;" d="
						M389.497,604.142c0,0-23.324,1.314-35.073,6.899"/>
					
						<path style="fill:#FFFFFF;stroke:#765853;stroke-width:2.8891;stroke-linecap:round;stroke-linejoin:round;stroke-miterlimit:10;" d="
						M389.497,613.384c0,0-23.21,1.177-35.026,6.324"/>
					
						<path style="fill:#FFFFFF;stroke:#765853;stroke-width:2.8891;stroke-linecap:round;stroke-linejoin:round;stroke-miterlimit:10;" d="
						M389.497,622.625c0,0-23.096,1.04-34.979,5.749"/>
					
						<path style="fill:#FFFFFF;stroke:#765853;stroke-width:2.8891;stroke-linecap:round;stroke-linejoin:round;stroke-miterlimit:10;" d="
						M389.497,631.867c0,0-22.983,0.903-34.933,5.174"/>
				</g>
			</g>
			<path style="fill:none;stroke:#765853;stroke-width:3;stroke-linecap:round;stroke-miterlimit:10;" d="M463,580.5
				c0,0,36.387,0,60.387,0c24,0,56.807-3.502,56.807-47.502"/>
			<g>
				
					<rect x="499.5" y="463.5" style="fill:none;stroke:#765853;stroke-width:3;stroke-linecap:round;stroke-miterlimit:10;" width="22" height="83"/>
				
					<rect x="499.5" y="463.5" style="fill:none;stroke:#765853;stroke-width:3;stroke-linecap:round;stroke-miterlimit:10;" width="22" height="83"/>
				
					<polygon style="fill:none;stroke:#765853;stroke-width:3;stroke-linecap:round;stroke-linejoin:round;stroke-miterlimit:10;" points="
					511.331,435.5 499.137,463.5 522.637,463.5 				"/>
				
					<rect x="499.5" y="546.5" style="fill:none;stroke:#765853;stroke-width:3;stroke-linecap:round;stroke-miterlimit:10;" width="22" height="6"/>
				
					<rect x="499.5" y="552.5" style="fill:none;stroke:#765853;stroke-width:3;stroke-linecap:round;stroke-miterlimit:10;" width="22" height="11"/>
				
					<line style="fill:none;stroke:#765853;stroke-width:3;stroke-linecap:round;stroke-miterlimit:10;" x1="506" y1="451.5" x2="517" y2="451.5"/>
				<g>
					
						<line style="fill:none;stroke:#765853;stroke-width:3;stroke-linecap:round;stroke-miterlimit:10;" x1="507.5" y1="546" x2="507.5" y2="464"/>
					
						<line style="fill:none;stroke:#765853;stroke-width:3;stroke-linecap:round;stroke-miterlimit:10;" x1="514.5" y1="546" x2="514.5" y2="464"/>
				</g>
			</g>
			<g>
				<path style="fill:none;stroke:#765853;stroke-width:3;stroke-linecap:round;stroke-linejoin:round;stroke-miterlimit:10;" d="
					M421.5,417.573c0,3.825-3.102,6.927-6.927,6.927h-39.146c-3.826,0-6.927-3.102-6.927-6.927v-30.146
					c0-3.826,3.101-6.927,6.927-6.927h39.146c3.825,0,6.927,3.101,6.927,6.927V417.573z"/>
				<path style="fill:none;stroke:#765853;stroke-width:3;stroke-linecap:round;stroke-linejoin:round;stroke-miterlimit:10;" d="
					M421.5,461.573c0,3.825-3.102,6.927-6.927,6.927h-39.146c-3.826,0-6.927-3.102-6.927-6.927v-30.146
					c0-3.825,3.101-6.927,6.927-6.927h39.146c3.825,0,6.927,3.102,6.927,6.927V461.573z"/>
				
					<rect x="375.5" y="388.5" style="fill:none;stroke:#765853;stroke-width:3;stroke-linecap:round;stroke-linejoin:round;stroke-miterlimit:10;" width="38" height="29"/>
				
					<rect x="375.5" y="434.5" style="fill:none;stroke:#765853;stroke-width:3;stroke-linecap:round;stroke-linejoin:round;stroke-miterlimit:10;" width="38" height="16"/>
				
					<rect x="387.5" y="450.5" style="fill:none;stroke:#765853;stroke-width:3;stroke-linecap:round;stroke-linejoin:round;stroke-miterlimit:10;" width="14" height="9"/>
			</g>
			<g>
				<g>
					<path style="fill:none;stroke:#93FFBA;stroke-width:2;stroke-linecap:round;stroke-linejoin:round;stroke-miterlimit:10;" d="
						M211.371,414.184l-0.111-21.206l-8.998,0.047l0.109,21.192c-4.988,1.988-8.973,7.114-8.941,13.104
						c0.04,7.686,6.343,13.884,14.03,13.844c7.685-0.04,13.481-6.302,13.439-13.988C220.868,421.2,217.382,416.124,211.371,414.184z
						"/>
					
						<path style="fill:#765853;stroke:#765853;stroke-width:2;stroke-linecap:round;stroke-linejoin:round;stroke-miterlimit:10;" d="
						M199.823,425.605c-0.165,0.646-0.261,1.319-0.257,2.016c0.023,4.402,3.61,7.952,8.013,7.929
						c4.402-0.022,7.952-3.61,7.929-8.014c-0.003-0.695-0.104-1.367-0.276-2.011L199.823,425.605z"/>
				</g>
				<g>
					<path style="fill:none;stroke:#765853;stroke-width:3;stroke-linecap:round;stroke-linejoin:round;stroke-miterlimit:10;" d="
						M211.371,414.184l-0.111-21.206l-8.998,0.047l0.109,21.192c-4.988,1.988-8.973,7.114-8.941,13.104
						c0.04,7.686,6.343,13.884,14.03,13.844c7.685-0.04,13.481-6.302,13.439-13.988C220.868,421.2,217.382,416.124,211.371,414.184z
						"/>
					<path style="fill:none;stroke:#765853;stroke-width:3;stroke-linecap:round;stroke-linejoin:round;stroke-miterlimit:10;" d="
						M199.823,425.605c-0.165,0.646-0.261,1.319-0.257,2.016c0.023,4.402,3.61,7.952,8.013,7.929
						c4.402-0.022,7.952-3.61,7.929-8.014c-0.003-0.695-0.104-1.367-0.276-2.011L199.823,425.605z"/>
				</g>
			</g>
			<g>
				<g>
					<g>
						<path style="fill:none;stroke:#93FFBA;stroke-width:2;stroke-miterlimit:10;" d="M482.586,415.139
							c-3.004,13.784-11.254,23.69-18.426,22.127c-7.172-1.564-10.551-14.005-7.547-27.789c3.005-13.783,11.254-23.69,18.427-22.127
							C482.213,388.913,485.591,401.354,482.586,415.139z"/>
						<path style="fill:none;stroke:#93FFBA;stroke-width:2;stroke-miterlimit:10;" d="M473.22,425.207
							c-13.445,4.136-26.039,1.758-28.13-5.307c-2.088-7.065,7.117-16.146,20.561-20.281c13.444-4.136,26.039-1.76,28.127,5.307
							C495.869,411.99,486.664,421.072,473.22,425.207z"/>
						<path style="fill:none;stroke:#93FFBA;stroke-width:2;stroke-miterlimit:10;" d="M460.543,422.3
							c-10.373-9.572-14.799-21.758-9.888-27.218c4.91-5.46,17.3-2.127,27.673,7.445c10.371,9.571,14.797,21.757,9.887,27.216
							C483.304,435.204,470.913,431.871,460.543,422.3z"/>
					</g>
					<path style="fill:none;stroke:#93FFBA;stroke-width:2;stroke-miterlimit:10;" d="M475.551,413.603
						c-0.75,3.439-4.145,5.617-7.583,4.868c-3.438-0.75-5.617-4.145-4.868-7.581c0.749-3.438,4.144-5.617,7.581-4.868
						C474.119,406.772,476.299,410.166,475.551,413.603z"/>
					<path style="fill:#765853;" d="M498.409,407.533c-0.489,2.241-2.702,3.662-4.942,3.174c-2.241-0.488-3.664-2.702-3.176-4.943
						c0.49-2.24,2.703-3.662,4.944-3.174C497.477,403.078,498.896,405.292,498.409,407.533z"/>
					<path style="fill:#765853;" d="M449.271,422.33c-0.487,2.241-2.701,3.661-4.941,3.173c-2.243-0.489-3.664-2.701-3.176-4.942
						c0.488-2.242,2.703-3.662,4.945-3.173C448.34,417.876,449.761,420.09,449.271,422.33z"/>
					<path style="fill:#765853;" d="M479.096,388.871c-0.488,2.241-2.701,3.663-4.943,3.174c-2.24-0.488-3.662-2.702-3.173-4.944
						c0.488-2.241,2.7-3.661,4.942-3.173C478.164,384.417,479.584,386.629,479.096,388.871z"/>
				</g>
				<g>
					<g>
						<path style="fill:none;stroke:#765853;stroke-width:3;stroke-linecap:round;stroke-linejoin:round;stroke-miterlimit:10;" d="
							M482.586,415.139c-3.004,13.784-11.254,23.69-18.426,22.127c-7.172-1.564-10.551-14.005-7.547-27.789
							c3.005-13.783,11.254-23.69,18.427-22.127C482.213,388.913,485.591,401.354,482.586,415.139z"/>
						<path style="fill:none;stroke:#765853;stroke-width:3;stroke-linecap:round;stroke-linejoin:round;stroke-miterlimit:10;" d="
							M473.22,425.207c-13.445,4.136-26.039,1.758-28.13-5.307c-2.088-7.065,7.117-16.146,20.561-20.281
							c13.444-4.136,26.039-1.76,28.127,5.307C495.869,411.99,486.664,421.072,473.22,425.207z"/>
						<path style="fill:none;stroke:#765853;stroke-width:3;stroke-linecap:round;stroke-linejoin:round;stroke-miterlimit:10;" d="
							M460.543,422.3c-10.373-9.572-14.799-21.758-9.888-27.218c4.91-5.46,17.3-2.127,27.673,7.445
							c10.371,9.571,14.797,21.757,9.887,27.216C483.304,435.204,470.913,431.871,460.543,422.3z"/>
					</g>
					<path style="fill:none;stroke:#765853;stroke-width:3;stroke-linecap:round;stroke-linejoin:round;stroke-miterlimit:10;" d="
						M475.551,413.603c-0.75,3.439-4.145,5.617-7.583,4.868c-3.438-0.75-5.617-4.145-4.868-7.581
						c0.749-3.438,4.144-5.617,7.581-4.868C474.119,406.772,476.299,410.166,475.551,413.603z"/>
					<path style="fill:none;stroke:#765853;stroke-width:3;stroke-linecap:round;stroke-linejoin:round;stroke-miterlimit:10;" d="
						M498.409,407.533c-0.489,2.241-2.702,3.662-4.942,3.174c-2.241-0.488-3.664-2.702-3.176-4.943
						c0.49-2.24,2.703-3.662,4.944-3.174C497.477,403.078,498.896,405.292,498.409,407.533z"/>
					<path style="fill:none;stroke:#765853;stroke-width:3;stroke-linecap:round;stroke-linejoin:round;stroke-miterlimit:10;" d="
						M449.271,422.33c-0.487,2.241-2.701,3.661-4.941,3.173c-2.243-0.489-3.664-2.701-3.176-4.942
						c0.488-2.242,2.703-3.662,4.945-3.173C448.34,417.876,449.761,420.09,449.271,422.33z"/>
					<path style="fill:none;stroke:#765853;stroke-width:3;stroke-linecap:round;stroke-linejoin:round;stroke-miterlimit:10;" d="
						M479.096,388.871c-0.488,2.241-2.701,3.663-4.943,3.174c-2.24-0.488-3.662-2.702-3.173-4.944
						c0.488-2.241,2.7-3.661,4.942-3.173C478.164,384.417,479.584,386.629,479.096,388.871z"/>
				</g>
			</g>
			<g>
				<g>
					<g>
						<defs>
							<path id="XMLID_8_" d="M610.413,493.076c0.852-24.096-17.116-44.286-42.087-45.168l-3.081,87.255
								C590.217,536.045,609.563,517.171,610.413,493.076z M579.911,462.422c11.92,5.037,19.319,16.654,18.841,30.242
								c-0.48,13.589-8.682,24.652-20.927,28.839L579.911,462.422z"/>
						</defs>
						<clipPath id="XMLID_00000011752550258265653730000003621184395873775239_">
							<use xlink:href="#XMLID_8_"  style="overflow:visible;"/>
						</clipPath>
					</g>
					<g>
						<defs>
							<path id="XMLID_7_" d="M610.413,493.076c0.852-24.096-17.116-44.286-42.087-45.168l-3.081,87.255
								C590.217,536.045,609.563,517.171,610.413,493.076z M579.911,462.422c11.92,5.037,19.319,16.654,18.841,30.242
								c-0.48,13.589-8.682,24.652-20.927,28.839L579.911,462.422z"/>
						</defs>
						<clipPath id="XMLID_00000103957725651720952150000011780957812617638295_">
							<use xlink:href="#XMLID_7_"  style="overflow:visible;"/>
						</clipPath>
						<g style="clip-path:url(#XMLID_00000103957725651720952150000011780957812617638295_);">
							
								<line style="fill:none;stroke:#765853;stroke-width:2;stroke-linecap:round;stroke-miterlimit:10;" x1="610.263" y1="493.628" x2="604.626" y2="493.429"/>
							
								<line style="fill:none;stroke:#765853;stroke-width:2;stroke-linecap:round;stroke-miterlimit:10;" x1="610.093" y1="486.705" x2="604.538" y2="487.325"/>
							
								<line style="fill:none;stroke:#765853;stroke-width:2;stroke-linecap:round;stroke-miterlimit:10;" x1="609.041" y1="480.235" x2="603.636" y2="481.662"/>
							
								<line style="fill:none;stroke:#765853;stroke-width:2;stroke-linecap:round;stroke-miterlimit:10;" x1="607.056" y1="473.989" x2="601.918" y2="476.191"/>
							
								<line style="fill:none;stroke:#765853;stroke-width:2;stroke-linecap:round;stroke-miterlimit:10;" x1="604.179" y1="468.101" x2="599.416" y2="471.028"/>
							
								<line style="fill:none;stroke:#765853;stroke-width:2;stroke-linecap:round;stroke-miterlimit:10;" x1="600.471" y1="462.694" x2="596.188" y2="466.288"/>
							
								<line style="fill:none;stroke:#765853;stroke-width:2;stroke-linecap:round;stroke-miterlimit:10;" x1="596.014" y1="457.89" x2="592.302" y2="462.071"/>
							
								<line style="fill:none;stroke:#765853;stroke-width:2;stroke-linecap:round;stroke-miterlimit:10;" x1="590.901" y1="453.787" x2="587.839" y2="458.465"/>
							
								<line style="fill:none;stroke:#765853;stroke-width:2;stroke-linecap:round;stroke-miterlimit:10;" x1="585.247" y1="450.476" x2="582.899" y2="455.551"/>
							
								<line style="fill:none;stroke:#765853;stroke-width:2;stroke-linecap:round;stroke-miterlimit:10;" x1="579.167" y1="448.025" x2="577.587" y2="453.39"/>
							
								<line style="fill:none;stroke:#765853;stroke-width:2;stroke-linecap:round;stroke-miterlimit:10;" x1="609.633" y1="499.791" x2="604.134" y2="498.778"/>
							
								<line style="fill:none;stroke:#765853;stroke-width:2;stroke-linecap:round;stroke-miterlimit:10;" x1="608.127" y1="506.17" x2="602.834" y2="504.364"/>
							
								<line style="fill:none;stroke:#765853;stroke-width:2;stroke-linecap:round;stroke-miterlimit:10;" x1="605.705" y1="512.26" x2="600.734" y2="509.702"/>
							
								<line style="fill:none;stroke:#765853;stroke-width:2;stroke-linecap:round;stroke-miterlimit:10;" x1="602.42" y1="517.932" x2="597.875" y2="514.676"/>
							
								<line style="fill:none;stroke:#765853;stroke-width:2;stroke-linecap:round;stroke-miterlimit:10;" x1="598.34" y1="523.063" x2="594.321" y2="519.176"/>
							
								<line style="fill:none;stroke:#765853;stroke-width:2;stroke-linecap:round;stroke-miterlimit:10;" x1="593.557" y1="527.541" x2="590.147" y2="523.109"/>
							
								<line style="fill:none;stroke:#765853;stroke-width:2;stroke-linecap:round;stroke-miterlimit:10;" x1="588.167" y1="531.273" x2="585.442" y2="526.393"/>
							
								<line style="fill:none;stroke:#765853;stroke-width:2;stroke-linecap:round;stroke-miterlimit:10;" x1="582.293" y1="534.179" x2="580.309" y2="528.95"/>
							
								<line style="fill:none;stroke:#765853;stroke-width:2;stroke-linecap:round;stroke-miterlimit:10;" x1="576.055" y1="536.193" x2="574.856" y2="530.731"/>
						</g>
						
							<use xlink:href="#XMLID_7_"  style="overflow:visible;fill:none;stroke:#765853;stroke-width:3;stroke-linecap:round;stroke-miterlimit:10;"/>
					</g>
					<g>
						<defs>
							<path id="XMLID_6_" d="M610.413,493.076c0.852-24.096-17.116-44.286-42.087-45.168l-3.081,87.255
								C590.217,536.045,609.563,517.171,610.413,493.076z M579.911,462.422c11.92,5.037,19.319,16.654,18.841,30.242
								c-0.48,13.589-8.682,24.652-20.927,28.839L579.911,462.422z"/>
						</defs>
						<clipPath id="XMLID_00000150800288023122548250000002889746021877627531_">
							<use xlink:href="#XMLID_6_"  style="overflow:visible;"/>
						</clipPath>
						<g style="clip-path:url(#XMLID_00000150800288023122548250000002889746021877627531_);">
							
								<line style="fill:none;stroke:#765853;stroke-width:3;stroke-linecap:round;stroke-miterlimit:10;" x1="610.263" y1="493.628" x2="604.626" y2="493.429"/>
							
								<line style="fill:none;stroke:#765853;stroke-width:3;stroke-linecap:round;stroke-miterlimit:10;" x1="610.093" y1="486.705" x2="604.538" y2="487.325"/>
							
								<line style="fill:none;stroke:#765853;stroke-width:3;stroke-linecap:round;stroke-miterlimit:10;" x1="609.041" y1="480.235" x2="603.636" y2="481.662"/>
							
								<line style="fill:none;stroke:#765853;stroke-width:3;stroke-linecap:round;stroke-miterlimit:10;" x1="607.056" y1="473.989" x2="601.918" y2="476.191"/>
							
								<line style="fill:none;stroke:#765853;stroke-width:3;stroke-linecap:round;stroke-miterlimit:10;" x1="604.179" y1="468.101" x2="599.416" y2="471.028"/>
							
								<line style="fill:none;stroke:#765853;stroke-width:3;stroke-linecap:round;stroke-miterlimit:10;" x1="600.471" y1="462.694" x2="596.188" y2="466.288"/>
							
								<line style="fill:none;stroke:#765853;stroke-width:3;stroke-linecap:round;stroke-miterlimit:10;" x1="596.014" y1="457.89" x2="592.302" y2="462.071"/>
							
								<line style="fill:none;stroke:#765853;stroke-width:3;stroke-linecap:round;stroke-miterlimit:10;" x1="590.901" y1="453.787" x2="587.839" y2="458.465"/>
							
								<line style="fill:none;stroke:#765853;stroke-width:3;stroke-linecap:round;stroke-miterlimit:10;" x1="585.247" y1="450.476" x2="582.899" y2="455.551"/>
							
								<line style="fill:none;stroke:#765853;stroke-width:3;stroke-linecap:round;stroke-miterlimit:10;" x1="579.167" y1="448.025" x2="577.587" y2="453.39"/>
							
								<line style="fill:none;stroke:#765853;stroke-width:3;stroke-linecap:round;stroke-miterlimit:10;" x1="609.633" y1="499.791" x2="604.134" y2="498.778"/>
							
								<line style="fill:none;stroke:#765853;stroke-width:3;stroke-linecap:round;stroke-miterlimit:10;" x1="608.127" y1="506.17" x2="602.834" y2="504.364"/>
							
								<line style="fill:none;stroke:#765853;stroke-width:3;stroke-linecap:round;stroke-miterlimit:10;" x1="605.705" y1="512.26" x2="600.734" y2="509.702"/>
							
								<line style="fill:none;stroke:#765853;stroke-width:3;stroke-linecap:round;stroke-miterlimit:10;" x1="602.42" y1="517.932" x2="597.875" y2="514.676"/>
							
								<line style="fill:none;stroke:#765853;stroke-width:3;stroke-linecap:round;stroke-miterlimit:10;" x1="598.34" y1="523.063" x2="594.321" y2="519.176"/>
							
								<line style="fill:none;stroke:#765853;stroke-width:3;stroke-linecap:round;stroke-miterlimit:10;" x1="593.557" y1="527.541" x2="590.147" y2="523.109"/>
							
								<line style="fill:none;stroke:#765853;stroke-width:3;stroke-linecap:round;stroke-miterlimit:10;" x1="588.167" y1="531.273" x2="585.442" y2="526.393"/>
							
								<line style="fill:none;stroke:#765853;stroke-width:3;stroke-linecap:round;stroke-miterlimit:10;" x1="582.293" y1="534.179" x2="580.309" y2="528.95"/>
							
								<line style="fill:none;stroke:#765853;stroke-width:3;stroke-linecap:round;stroke-miterlimit:10;" x1="576.055" y1="536.193" x2="574.856" y2="530.731"/>
						</g>
					</g>
				</g>
				<g>
					<g>
						
							<line style="fill:none;stroke:#765853;stroke-width:2;stroke-linecap:round;stroke-miterlimit:10;" x1="566.12" y1="528.915" x2="571.522" y2="529.102"/>
						
							<line style="fill:none;stroke:#765853;stroke-width:2;stroke-linecap:round;stroke-miterlimit:10;" x1="566.401" y1="520.909" x2="571.802" y2="521.097"/>
						
							<line style="fill:none;stroke:#765853;stroke-width:2;stroke-linecap:round;stroke-miterlimit:10;" x1="566.68" y1="512.905" x2="572.082" y2="513.093"/>
						
							<line style="fill:none;stroke:#765853;stroke-width:2;stroke-linecap:round;stroke-miterlimit:10;" x1="566.958" y1="504.901" x2="572.358" y2="505.088"/>
						
							<line style="fill:none;stroke:#765853;stroke-width:2;stroke-linecap:round;stroke-miterlimit:10;" x1="567.236" y1="496.896" x2="572.641" y2="497.083"/>
						
							<line style="fill:none;stroke:#765853;stroke-width:2;stroke-linecap:round;stroke-miterlimit:10;" x1="567.516" y1="488.893" x2="572.918" y2="489.076"/>
						
							<line style="fill:none;stroke:#765853;stroke-width:2;stroke-linecap:round;stroke-miterlimit:10;" x1="567.794" y1="480.887" x2="573.198" y2="481.073"/>
						
							<line style="fill:none;stroke:#765853;stroke-width:2;stroke-linecap:round;stroke-miterlimit:10;" x1="568.073" y1="472.883" x2="573.475" y2="473.068"/>
						
							<line style="fill:none;stroke:#765853;stroke-width:2;stroke-linecap:round;stroke-miterlimit:10;" x1="568.352" y1="464.877" x2="573.756" y2="465.063"/>
						
							<line style="fill:none;stroke:#765853;stroke-width:2;stroke-linecap:round;stroke-miterlimit:10;" x1="568.632" y1="456.871" x2="574.033" y2="457.059"/>
					</g>
					<g>
						
							<line style="fill:none;stroke:#765853;stroke-width:3;stroke-linecap:round;stroke-miterlimit:10;" x1="566.12" y1="528.915" x2="571.522" y2="529.102"/>
						
							<line style="fill:none;stroke:#765853;stroke-width:3;stroke-linecap:round;stroke-miterlimit:10;" x1="566.401" y1="520.909" x2="571.802" y2="521.097"/>
						
							<line style="fill:none;stroke:#765853;stroke-width:3;stroke-linecap:round;stroke-miterlimit:10;" x1="566.68" y1="512.905" x2="572.082" y2="513.093"/>
						
							<line style="fill:none;stroke:#765853;stroke-width:3;stroke-linecap:round;stroke-miterlimit:10;" x1="566.958" y1="504.901" x2="572.358" y2="505.088"/>
						
							<line style="fill:none;stroke:#765853;stroke-width:3;stroke-linecap:round;stroke-miterlimit:10;" x1="567.236" y1="496.896" x2="572.641" y2="497.083"/>
						
							<line style="fill:none;stroke:#765853;stroke-width:3;stroke-linecap:round;stroke-miterlimit:10;" x1="567.516" y1="488.893" x2="572.918" y2="489.076"/>
						
							<line style="fill:none;stroke:#765853;stroke-width:3;stroke-linecap:round;stroke-miterlimit:10;" x1="567.794" y1="480.887" x2="573.198" y2="481.073"/>
						
							<line style="fill:none;stroke:#765853;stroke-width:3;stroke-linecap:round;stroke-miterlimit:10;" x1="568.073" y1="472.883" x2="573.475" y2="473.068"/>
						
							<line style="fill:none;stroke:#765853;stroke-width:3;stroke-linecap:round;stroke-miterlimit:10;" x1="568.352" y1="464.877" x2="573.756" y2="465.063"/>
						
							<line style="fill:none;stroke:#765853;stroke-width:3;stroke-linecap:round;stroke-miterlimit:10;" x1="568.632" y1="456.871" x2="574.033" y2="457.059"/>
					</g>
				</g>
			</g>
			<g>
				<path style="fill:none;stroke:#765853;stroke-width:3;stroke-linecap:round;stroke-miterlimit:10;" d="M347.387,491.5
					c6.397,0,6.397,20,12.795,20c6.4,0,6.4-20,12.8-20c6.398,0,6.398,20,12.795,20c6.402,0,6.402-20,12.805-20
					c6.402,0,6.402,20,12.805,20"/>
				<path style="fill:none;stroke:#765853;stroke-width:3;stroke-linecap:round;stroke-miterlimit:10;" d="M347.387,511.834
					c6.397,0,6.397-20,12.795-20c6.4,0,6.4,20,12.8,20c6.398,0,6.398-20,12.795-20c6.402,0,6.402,20,12.805,20
					c6.402,0,6.402-20,12.805-20"/>
			</g>
		</g>
	</g>
</g>
</svg>
